<svg xmlns="http://www.w3.org/2000/svg" fill="none" viewBox="0 0 160 55"><path fill="#fff" d="M101.062 50.2847c-17.0004-1.4999-61.5004 10.5-86.5003 0-24.9999-10.5-14.000167-33.5003 4.5001-31.5 4.3364-25.72813 41.5002-23.50003 40 5 1.632-.9412 10.5002-3.5 16.5 4 14.0796-22.8958 37.9222-3.6791 32.0002 9.5 7.716-.3954 10.5 14.5-6.5 13zM129.968 30.6079c-8.015.0001-10.686 5.1781.534 6.2154s10.21-.5178 21.43-.5178c11.22 0 8.371-4.4891 5.343-5.6976-1.092-2.6325-6.012-4.4979-9.775-1.249-3.737-9.2491-16-6.4999-17.532 1.249z"/><path fill="#F8F8F8" d="M37.7048 5.25119c-1.5-1-6.5 0-9 2s-3.5 4.50031-2 6.00031 2.5 0 5.5-3c3-3.00004 7-4.00031 5.5-5.00031zM18.5538 23.3205c-1.1836-1.3598-6.2705-1.7122-9.20899-.4413-2.93853 1.2708-4.56181 3.4194-3.5099 5.2615 1.05191 1.8422 2.41171.6585 6.09599-1.4453 3.6843-2.1038 7.8065-2.0151 6.6229-3.3749zM91.7059 20.2714c-1.561-.9018-6.4867.4165-8.8534 2.5726-2.3667 2.156-3.2044 4.7153-1.6114 6.1161 1.593 1.4008 2.4948-.1602 5.2965-3.3463 2.8016-3.1861 6.7292-4.4406 5.1683-5.3424z"/></svg>