<svg xmlns="http://www.w3.org/2000/svg" fill="none" viewBox="0 0 264 84"><defs><clipPath id="b"><path fill="#fff" d="M0 0h264v83H0z" transform="translate(0 .6)"/></clipPath><clipPath id="c"><path fill="#fff" d="M0 0h264v83H0z" transform="translate(0 .6)"/></clipPath><clipPath id="a"><path fill="#fff" d="M0 0h264v83H0z" transform="translate(0 .6)"/></clipPath><clipPath id="d"><path fill="#fff" d="M0 0h264v83H0z" transform="translate(0 .6)"/></clipPath></defs><g clip-path="url(#a)" transform="translate(-.3)"><path fill="#9dd7c9" fill-rule="evenodd" d="M42.2 14.3a2.4 2.4 0 0 0 .1.9l.2.5c.5.3.4-.1.5-.2 0-.2-.1-.4-.5-.9zm-3.7-1.1a6.3 6.3 0 0 0 .9 4.6c.7 1 1.9 2 3.6 1.6 1.8-.3 3.3-1.3 3.6-3a5 5 0 0 0-1.1-4.1l-.8-.9c1.8-.8 4-1 5.3-.6A2 2 0 0 0 51 7a12 12 0 0 0-10.2 2.4c-1.4-.3-3-.2-4.6.4a7.8 7.8 0 0 0-3.7 2.6A9 9 0 0 0 31 16l-.5 2.7v.8l-.7 3m8.7-9.3a5.1 5.1 0 0 0-3 1.6c-.4.5-.7 1.2-.9 2l-.3 2.3-.1.9c-.2 1.1-.4 2.4-.9 3.7-.5 1.2-1.2 2-2 2.5a15.1 15.1 0 0 1-1.6 1 1.9 1.9 0 1 1-2.3-3l1-.6.1-.1.7-.4c.3-.3.5-.4.6-.7m13.2-7v.1z" clip-rule="evenodd"/><path fill="#9dd7c9" d="M31 23.6c0-1-.2-3.5-1-4.1-5.1-5.9-13.2-2.8-18.8-2.1.7-1.3 2.7-3 4-3.8 0-.2-2.4-.7-2.6-.7-3.4-.5-6.7.5-9.9.5-.3-.6 2-2 2.9-2.6 2.5-2 5.4-2.6 8.6-3 2-.3 3.9 0 5.6.2.3-.3-3.1-2.8-3.1-3.4 1.7.5 3.6.5 5.1 1 4.5 1.3 8.6 9.3 9.5 13.9"/><path fill="#bec3e2" fill-rule="evenodd" d="M46 45.5a6.8 6.8 0 1 0-2.6-13.3A6.8 6.8 0 0 0 30 33.7a6.7 6.7 0 0 0-5.4-.4 6.7 6.7 0 0 0-10.2-.8 6.2 6.2 0 1 0-7.5 8.7 6.2 6.2 0 0 0 5 9.3v.4c0 3.1 2.3 5.7 5.3 6.1a6.8 6.8 0 0 0 11.3 7.7 6.2 6.2 0 1 0 .6-7.3 6.9 6.9 0 0 0-4.6-3.5 6.7 6.7 0 0 0 5.8-8.5 7 7 0 0 0 2.6-3 6.8 6.8 0 0 0 1 4.4c-.4 1-.7 2-.7 3a6.8 6.8 0 1 0 12.5-3.7zm-12.5-5.1l.2-.5h-.2z" clip-rule="evenodd"/><path fill="#afb8e4" fill-rule="evenodd" d="M30.7 35.3a7 7 0 0 0-5-11.7A7 7 0 1 0 28.4 37a6.6 6.6 0 0 0 1.4 10 6.8 6.8 0 1 0 4.8 1 6.7 6.7 0 1 0-3.9-12.7zM18 52.1a6.8 6.8 0 1 0 0-13.7 6.8 6.8 0 0 0 0 13.7zm15.5 17c0 3.8-3 7-6.7 7a6.8 6.8 0 0 1-6.7-7c0-3.8 3-7 6.7-7s6.7 3.2 6.7 7zm12.8 10.5a6.7 6.7 0 1 0 0-13.4 6.7 6.7 0 0 0 0 13.4z" clip-rule="evenodd"/><path fill="#c9f2c5" d="M158.4 44.6c6.7-8.5 4.7-24.7-11.1-27-8.3-1-15-.6-20.9 6.7-6.5 8.1-5.3 34.2 9.8 31.8 10.3-1.6 17.6-1.4 22.2-11.5z"/><path fill="#c6edc2" d="M102.6 59.2c-6.1-7.7-9.6-21.7-3.5-29.3 13-12 30.8-4.2 34.3 2 2.3 4.2 1.4 11.1.9 16-2.4 11.9-12.1 17.5-20.2 12.4-2.9 3.6-9.3 2.3-11.5-1.1z"/><path fill="#9dd7c9" fill-rule="evenodd" d="M147.6 11.8c.7.2 1 1 .9 1.6l-.4 1.4c-.3 1-.7 2-.9 3.1a7.8 7.8 0 0 0 0 4 1.3 1.3 0 1 1-2.5.9 10 10 0 0 1 0-5.4c.2-1.2.5-2.4.9-3.5l.3-1.2c.2-.7 1-1.1 1.7-1z" clip-rule="evenodd"/><path fill="#abd199" fill-rule="evenodd" d="M139.4 19.8c.4-.6 1.3-.6 1.8-.1 1.1 1 2.7 1.5 4.4 1.7 1.8.2 3.6 0 5.2-.3a1.3 1.3 0 1 1 .7 2.5c-1.9.5-4 .7-6.2.4-2-.2-4.2-1-5.8-2.3-.6-.5-.6-1.3-.1-1.9z" clip-rule="evenodd"/><path fill="#9dd7c9" fill-rule="evenodd" d="M118.1 18c-1.2-4-5-9-10.6-8.9-2.9 5.7 5.2 13 9.9 13v.1l-1.5 7.5a1.3 1.3 0 0 0 2.6.5c.7-3.2 1-5.2 1.4-7.5l.8-4a1.3 1.3 0 0 0-2.6-.7z" clip-rule="evenodd"/><path fill="#abd199" fill-rule="evenodd" d="M109.7 28.3c.5-.5 1.3-.6 1.9-.1 1 1 2.6 1.4 4.5 1.4 1.7 0 3.5-.2 5.1-.4l.6-.1a1.3 1.3 0 0 1 .3 2.6h-.5c-1.6.3-3.6.6-5.5.6-2.2 0-4.5-.5-6.3-2.1-.5-.5-.6-1.4 0-2z" clip-rule="evenodd"/><path fill="#b4e4af" d="M127.3 68.6c-1.8-4.8-4.8-14-2.7-19 4.8-11.4 24.9-10 33.1-4.7 7.9 5.1 3.8 18 0 24.4-2.7 4.5-4.3 11.4-11.6 9.5-2-.6-5.4-1.1-5.5-2.6-8.2 4.3-10.5.1-13.3-7.6z"/><path fill="#9dd7c9" fill-rule="evenodd" d="M147 37.7c10 1.3 15.7-2.8 17.7-8.8-3-3-13.8 2.6-17.7 7v-2.2a1.3 1.3 0 1 0-2.6 0c0 6.3 0 10-3.5 15.1a1.3 1.3 0 1 0 2.2 1.5c3-4.5 3.7-8.2 3.9-12.6z" clip-rule="evenodd"/><path fill="#abd199" fill-rule="evenodd" d="M138.3 45.2c.7 0 1.3.5 1.4 1.2 0 .8.4 1.2.8 1.5.5.3 1.3.6 2.3.7 1.8.1 3.8-.2 5.3-.4h.6a1.3 1.3 0 1 1 .4 2.5l-.6.1c-1.5.2-3.8.6-6 .4a7.4 7.4 0 0 1-3.5-1.1 4.4 4.4 0 0 1-2-3.5c0-.7.5-1.3 1.3-1.4z" clip-rule="evenodd"/><path fill="#b4e4af" d="M63.3 62.2c-3.6-13.8-2.7-25 12.6-27.3 8-1 15.3-.4 22.2 5.7 8 7 1 40-17.2 31.7-7.8 2-14.7-3.3-17.6-10.1z"/><path fill="#9dd7c9" fill-rule="evenodd" d="M74.4 25.8c-6.3-9 6.3-1.8 8.9 3.7l.6-1.5a1.3 1.3 0 0 1 2.5.4c1.6-2 4.1-4 8-4.6 2.3-.3 6.4-.3 7.8.5-1 4.1-5.3 6.4-9.1 7.3a16 16 0 0 1-4.4.2l-3.5.1a19 19 0 0 0-1 8.8 1.4 1.4 0 1 1-2.7.3c-.3-2.8-.2-5.7 1-9.2-3-.7-6-3-8-6z" clip-rule="evenodd"/><path fill="#abd199" fill-rule="evenodd" d="M77.8 38.1c.6-.4 1.4-.2 1.8.4.9 1.2 2 1.8 3.4 2 1.4.1 3-.2 4.5-1a1.3 1.3 0 1 1 1.2 2.4 11 11 0 0 1-6 1.2 7 7 0 0 1-5.3-3.2c-.4-.6-.2-1.4.4-1.8z" clip-rule="evenodd"/><circle cx="69.9" cy="44.8" r="1.8" fill="#fff" fill-opacity=".5"/><circle cx="131.9" cy="50.4" r="1.8" fill="#fff" fill-opacity=".5"/><path fill="#93dccf" fill-rule="evenodd" d="M174.7 45.8l1.8 4.2a34.4 34.4 0 1 0 59-35.2z" clip-rule="evenodd"/><path fill="#f8f7f7" stroke="#93dccf" stroke-width="3" d="M217.6 53.2c8.4-4.3 15-10.6 18.6-17.3 3.6-6.8 4.4-14.2 1.3-20.4-3.2-6.3-9.7-9.9-17.3-11-7.6-1-16.5.6-25 4.9a43.2 43.2 0 0 0-18.5 17.3c-3.6 6.8-4.5 14.2-1.3 20.4 3.2 6.3 9.6 10 17.2 11 7.7 1 16.6-.6 25-4.9z"/><ellipse cx="206.2" cy="31.3" fill="#ffa0a2" rx="29.6" ry="19.7" transform="rotate(-27 206.2 31.3)"/><path fill="#fff" d="M194.4 46.6l-.3 1z"/><path fill="#8f8f8f" fill-rule="evenodd" d="M194.7 45.2c.8.2 1.2 1 1 1.7l-.3 1a1.4 1.4 0 1 1-2.7-.7l.3-1c.2-.8 1-1.2 1.7-1z" clip-rule="evenodd"/><path fill="#fff" d="M201 44.6l.1 1.2z"/><path fill="#8f8f8f" fill-rule="evenodd" d="M200.8 43.2c.8-.1 1.5.4 1.6 1.2l.1 1.2a1.4 1.4 0 0 1-2.8.4l-.1-1.2c-.1-.8.4-1.5 1.2-1.6z" clip-rule="evenodd"/><path fill="#fff" d="M208 41.6l.6 1z"/><path fill="#8f8f8f" fill-rule="evenodd" d="M207.2 40.4c.7-.4 1.5-.2 2 .5l.6 1a1.4 1.4 0 1 1-2.4 1.5l-.7-1.1c-.4-.7-.2-1.5.5-2z" clip-rule="evenodd"/><path fill="#fff" d="M190.9 43l-.7 1z"/><path fill="#8f8f8f" fill-rule="evenodd" d="M191.6 42c.7.3.9 1.2.4 1.9l-.6 1a1.4 1.4 0 0 1-2.4-1.6l.7-1c.4-.6 1.3-.8 2-.4z" clip-rule="evenodd"/><path fill="#fff" d="M202.9 38.7l.3 1z"/><path fill="#8f8f8f" fill-rule="evenodd" d="M202.5 37.3c.8-.2 1.5.2 1.7 1l.3 1a1.4 1.4 0 0 1-2.7.7l-.2-1c-.3-.7.2-1.5 1-1.7z" clip-rule="evenodd"/><path fill="#fff" d="M211.4 33.4l.6.6z"/><path fill="#8f8f8f" fill-rule="evenodd" d="M210.4 32.4c.6-.6 1.4-.6 2 0l.6.6a1.4 1.4 0 1 1-2 2l-.6-.6c-.6-.6-.6-1.5 0-2z" clip-rule="evenodd"/><path fill="#fff" d="M188.8 31.2l-1-.4z"/><path fill="#8f8f8f" fill-rule="evenodd" d="M186.4 30.3c.3-.8 1.1-1.1 1.8-.8l1.1.4a1.4 1.4 0 1 1-1 2.6l-1.1-.4c-.7-.3-1-1.1-.8-1.8z" clip-rule="evenodd"/><path fill="#fff" d="M193 25.6l-1-1z"/><path fill="#8f8f8f" fill-rule="evenodd" d="M190.9 23.8c.5-.6 1.4-.7 2-.2l1 .9a1.4 1.4 0 0 1-1.8 2.1l-1-.9c-.6-.5-.7-1.3-.2-2z" clip-rule="evenodd"/><path fill="#fff" d="M199.3 20.5l-.9-1.1z"/><path fill="#8f8f8f" fill-rule="evenodd" d="M197.6 18.3c.6-.5 1.4-.4 2 .2l.8 1a1.4 1.4 0 1 1-2.2 1.8l-.8-1c-.5-.6-.4-1.5.2-2z" clip-rule="evenodd"/><path fill="#fff" d="M207.7 16.2v-1.6z"/><path fill="#8f8f8f" fill-rule="evenodd" d="M207.7 13.2c.8 0 1.4.6 1.4 1.4v1.6a1.4 1.4 0 1 1-2.8 0v-1.6c0-.8.6-1.4 1.4-1.4z" clip-rule="evenodd"/><path fill="#fff" d="M215.3 15.1l.4-1.7z"/><path fill="#8f8f8f" fill-rule="evenodd" d="M216 12c.7.2 1.2 1 1 1.7l-.4 1.7a1.4 1.4 0 0 1-2.7-.6l.4-1.7c.2-.8 1-1.3 1.7-1z" clip-rule="evenodd"/><path fill="#fff" d="M205.9 22.3l-.6-1.3z"/><path fill="#8f8f8f" fill-rule="evenodd" d="M204.8 19.7c.7-.3 1.5 0 1.8.7l.5 1.4a1.4 1.4 0 0 1-2.5 1l-.6-1.3c-.3-.7 0-1.5.8-1.8z" clip-rule="evenodd"/><path fill="#fff" d="M199 26.7l-.7-1z"/><path fill="#8f8f8f" fill-rule="evenodd" d="M197.3 24.7c.6-.5 1.5-.4 2 .2l.8.9a1.4 1.4 0 0 1-2.1 1.8l-.8-.9c-.5-.6-.4-1.5.1-2z" clip-rule="evenodd"/><path fill="#fff" d="M220 18.5l.6-1.7z"/><path fill="#8f8f8f" fill-rule="evenodd" d="M221.2 15.5c.7.3 1 1.1.7 1.8l-.6 1.7a1.4 1.4 0 0 1-2.6-1l.6-1.7c.3-.7 1.1-1 1.9-.8z" clip-rule="evenodd"/><path fill="#b9efdc" fill-rule="evenodd" d="M185.3 55.8a1 1 0 0 1 1.4 0c2.5 2.7 5.5 5.2 9 7.4a1 1 0 0 1-1 1.7 43.6 43.6 0 0 1-9.5-7.7 1 1 0 0 1 0-1.4z" clip-rule="evenodd"/><circle cx="227.9" cy="47" r="34.4" fill="#93dccf"/><path fill="#b9efdc" fill-rule="evenodd" d="M215.6 22.8c.5.3.6 1 .3 1.4-9.9 13.7-7.8 33.2 4 52.3a1 1 0 0 1-1.7 1c-12-19.4-14.5-39.8-4-54.5a1 1 0 0 1 1.4-.2zm7.9 1.8c.6 0 1 .5 1 1-1 19 1.6 35.6 6.3 51.1a1 1 0 0 1-2 .6 150.3 150.3 0 0 1-6.3-51.7c0-.6.5-1 1-1zm7.7-1.1a1 1 0 0 1 1.4.2 62 62 0 0 1 9.4 24.7 78 78 0 0 1 1.2 25.1 1 1 0 1 1-2-.3c1-5.7.6-15-1.2-24.4a60 60 0 0 0-9-23.9 1 1 0 0 1 .2-1.4zm7-5.1a1 1 0 0 1 1.4-.4c8.3 4.2 13.7 14.6 15.8 25.3a49 49 0 0 1 .5 15.7 24 24 0 0 1-5.1 12.3 1 1 0 0 1-1.5-1.4c2.4-2.6 4-6.6 4.6-11.2.7-4.7.5-10-.5-15-2-10.4-7.2-20.1-14.7-24a1 1 0 0 1-.5-1.3z" clip-rule="evenodd"/><path fill="#b9efdc" fill-rule="evenodd" d="M209.4 23.3c.4.4.3 1 0 1.4a29 29 0 0 0-8.5 21.4 39 39 0 0 0 11.7 27.7 1 1 0 0 1-1.5 1.4A41 41 0 0 1 199 46.1c0-9.6 3.6-18.2 9.1-23a1 1 0 0 1 1.4.2z" clip-rule="evenodd"/></g></svg>