<svg xmlns="http://www.w3.org/2000/svg" fill="none" viewBox="0 0 264 84"><defs><clipPath id="b"><path fill="#fff" d="M0 0h264v83H0z" transform="translate(0 .6)"/></clipPath><clipPath id="c"><path fill="#fff" d="M0 0h264v83H0z" transform="translate(0 .6)"/></clipPath><clipPath id="a"><path fill="#fff" d="M0 0h264v83H0z" transform="translate(0 .6)"/></clipPath><clipPath id="d"><path fill="#fff" d="M0 0h264v83H0z" transform="translate(0 .6)"/></clipPath></defs><g clip-path="url(#b)" transform="translate(-.2 -.6)"><path fill="#c9f2c5" d="M158.3 45.1c6.7-8.5 4.8-24.7-11-27-8.4-1-15-.6-21 6.8-6.4 8-5.3 34.1 9.8 31.7 10.3-1.5 17.7-1.4 22.2-11.5z"/><path fill="#c6edc2" d="M102.6 59.7C96.5 52 92.9 38 99 30.5c13-12.1 30.8-4.3 34.2 2 2.3 4.2 1.5 11 1 16-2.5 11.8-12.2 17.4-20.2 12.3-2.9 3.7-9.3 2.3-11.5-1.1z"/><path fill="#9dd7c9" fill-rule="evenodd" d="M147.5 12.3c.7.2 1.1 1 1 1.7l-.5 1.4-.8 3a7.8 7.8 0 0 0 0 4 1.3 1.3 0 0 1-2.5.9 10 10 0 0 1-.1-5.4 19 19 0 0 1 1-3.4c0-.5.2-.9.3-1.3.2-.7 1-1 1.6-.9z" clip-rule="evenodd"/><path fill="#abd199" fill-rule="evenodd" d="M139.3 20.3c.5-.5 1.3-.6 1.9-.1 1 1 2.6 1.5 4.4 1.7 1.7.2 3.6 0 5.2-.3a1.3 1.3 0 1 1 .6 2.6c-1.8.4-4 .6-6.1.4-2.1-.3-4.2-1-5.9-2.4-.5-.5-.6-1.3 0-1.9z" clip-rule="evenodd"/><path fill="#9dd7c9" fill-rule="evenodd" d="M118 18.5c-1.2-4-5-9-10.5-8.9-2.9 5.8 5.2 13 9.8 13a132.3 132.3 0 0 1-1.4 7.6 1.3 1.3 0 1 0 2.6.5l1.4-7.5.7-4a1.3 1.3 0 0 0-2.5-.7z" clip-rule="evenodd"/><path fill="#abd199" fill-rule="evenodd" d="M109.7 28.8c.5-.5 1.3-.5 1.8 0 1.1 1 2.7 1.3 4.6 1.4 1.7 0 3.4-.3 5-.5h.6a1.3 1.3 0 1 1 .4 2.5l-.5.1c-1.7.3-3.7.6-5.6.5a9 9 0 0 1-6.2-2.1c-.6-.5-.6-1.3-.1-1.9z" clip-rule="evenodd"/><path fill="#b4e4af" d="M127.2 69.1c-1.7-4.7-4.8-13.9-2.6-19 4.7-11.4 24.8-10 33-4.6 8 5 3.9 18 0 24.4-2.7 4.5-4.2 11.3-11.5 9.4-2-.5-5.5-1.1-5.6-2.5-8.1 4.2-10.4 0-13.3-7.7z"/><path fill="#9dd7c9" fill-rule="evenodd" d="M147 38.3c10 1.2 15.7-2.9 17.7-8.9-3.1-3-13.8 2.7-17.7 7v-2.2a1.4 1.4 0 0 0-2.7 0c0 6.4 0 10-3.4 15.2a1.3 1.3 0 0 0 2.2 1.4c3-4.5 3.7-8.1 3.8-12.5z" clip-rule="evenodd"/><path fill="#abd199" fill-rule="evenodd" d="M138.2 45.7c.8 0 1.4.5 1.5 1.3 0 .7.3 1.2.8 1.4a4 4 0 0 0 2.2.7c1.8.2 3.8-.1 5.4-.4h.5a1.3 1.3 0 1 1 .4 2.6h-.5c-1.5.3-3.9.6-6 .4a7.4 7.4 0 0 1-3.5-1 4.4 4.4 0 0 1-2-3.5c0-.8.5-1.4 1.2-1.5z" clip-rule="evenodd"/><path fill="#b4e4af" d="M63.3 62.7c-3.6-13.7-2.8-25 12.6-27.3 8-1 15.2-.4 22.2 5.8 8 7 1 39.9-17.2 31.6-7.9 2-14.8-3.3-17.6-10z"/><path fill="#9dd7c9" fill-rule="evenodd" d="M74.4 26.4c-6.4-9.1 6.3-1.9 8.8 3.7l.7-1.5a1.3 1.3 0 0 1 2.5.4c1.6-2 4-4.1 8-4.6 2.3-.3 6.4-.3 7.7.5-.9 4-5.3 6.4-9 7.2-1.4.4-3 .3-4.4.3H85a19 19 0 0 0-1 8.9 1.3 1.3 0 0 1-2.6.2c-.3-2.8-.2-5.6.9-9.2-3-.7-6-2.9-8-6z" clip-rule="evenodd"/><path fill="#abd199" fill-rule="evenodd" d="M77.8 38.6c.6-.4 1.4-.2 1.8.4.8 1.3 2 1.9 3.4 2 1.4.2 3-.2 4.5-1a1.3 1.3 0 1 1 1.2 2.4 11 11 0 0 1-6 1.3 7 7 0 0 1-5.3-3.2c-.4-.6-.2-1.4.4-1.9z" clip-rule="evenodd"/><circle cx="69.8" cy="45.3" r="1.8" fill="#fff" fill-opacity=".5"/><circle cx="131.9" cy="50.9" r="1.8" fill="#fff" fill-opacity=".5"/><path fill="#93dccf" fill-rule="evenodd" d="M174.7 46.3c.5 1.4 1 2.9 1.8 4.2a34.4 34.4 0 1 0 59-35.1z" clip-rule="evenodd"/><path fill="#f8f7f7" stroke="#93dccf" stroke-width="3" d="M217.5 53.8c8.5-4.3 15-10.6 18.6-17.4 3.7-6.7 4.5-14.1 1.3-20.4-3.2-6.2-9.6-9.9-17.2-10.9s-16.5.5-25 4.8a43.2 43.2 0 0 0-18.6 17.4 22.1 22.1 0 0 0-1.3 20.4c3.2 6.2 9.7 9.9 17.3 10.9 7.6 1 16.5-.5 25-4.8z"/><ellipse cx="206.1" cy="31.8" fill="#ffa0a2" rx="29.6" ry="19.7" transform="rotate(-27 206.1 31.8)"/><path fill="#fff" d="M194.3 47l-.3 1.1z"/><path fill="#8f8f8f" fill-rule="evenodd" d="M194.7 45.7c.7.2 1.2 1 1 1.8l-.3 1a1.4 1.4 0 0 1-2.7-.7l.3-1c.2-.8 1-1.3 1.7-1z" clip-rule="evenodd"/><path fill="#fff" d="M201 45.1v1.2z"/><path fill="#8f8f8f" fill-rule="evenodd" d="M200.7 43.7c.8 0 1.5.5 1.6 1.2l.2 1.2a1.4 1.4 0 1 1-2.8.4l-.2-1.2c0-.8.5-1.5 1.2-1.6z" clip-rule="evenodd"/><path fill="#fff" d="M207.9 42.1l.6 1.1z"/><path fill="#8f8f8f" fill-rule="evenodd" d="M207.2 41c.6-.5 1.5-.3 1.9.4l.6 1.1a1.4 1.4 0 0 1-2.4 1.4l-.6-1c-.4-.7-.2-1.6.5-2z" clip-rule="evenodd"/><path fill="#fff" d="M190.8 43.6l-.6 1z"/><path fill="#8f8f8f" fill-rule="evenodd" d="M191.6 42.5c.6.4.8 1.3.4 1.9l-.7 1a1.4 1.4 0 0 1-2.3-1.6l.7-1c.4-.6 1.3-.8 1.9-.3z" clip-rule="evenodd"/><path fill="#fff" d="M202.9 39.2l.2 1z"/><path fill="#8f8f8f" fill-rule="evenodd" d="M202.5 37.9c.7-.3 1.5.2 1.7 1l.3.9a1.4 1.4 0 0 1-2.7.8l-.3-1c-.2-.7.2-1.5 1-1.7z" clip-rule="evenodd"/><path fill="#fff" d="M211.3 34l.7.5z"/><path fill="#8f8f8f" fill-rule="evenodd" d="M210.4 33c.5-.6 1.4-.6 2 0l.6.6a1.4 1.4 0 0 1-2 2l-.7-.7c-.5-.6-.5-1.4 0-2z" clip-rule="evenodd"/><path fill="#fff" d="M188.7 31.7l-1-.4z"/><path fill="#8f8f8f" fill-rule="evenodd" d="M186.4 30.8c.2-.7 1-1 1.8-.8l1 .4a1.4 1.4 0 0 1-1 2.6l-1-.4c-.8-.3-1.1-1-.8-1.8z" clip-rule="evenodd"/><path fill="#fff" d="M193 26.1l-1-.9z"/><path fill="#8f8f8f" fill-rule="evenodd" d="M190.8 24.3c.5-.6 1.4-.7 2-.2l1 1a1.4 1.4 0 1 1-1.7 2l-1-.8c-.7-.5-.8-1.4-.3-2z" clip-rule="evenodd"/><path fill="#fff" d="M199.3 21l-.9-1z"/><path fill="#8f8f8f" fill-rule="evenodd" d="M197.5 18.9c.6-.5 1.5-.5 2 .1l.9 1.1a1.4 1.4 0 1 1-2.2 1.8l-.9-1c-.5-.7-.4-1.6.2-2z" clip-rule="evenodd"/><path fill="#fff" d="M207.7 16.8V15z"/><path fill="#8f8f8f" fill-rule="evenodd" d="M207.6 13.7c.8 0 1.4.6 1.5 1.4v1.6a1.4 1.4 0 1 1-2.8 0v-1.6c0-.7.6-1.4 1.3-1.4z" clip-rule="evenodd"/><path fill="#fff" d="M215.2 15.6l.4-1.7z"/><path fill="#8f8f8f" fill-rule="evenodd" d="M216 12.6c.7.1 1.2.9 1 1.6l-.4 1.8a1.4 1.4 0 0 1-2.8-.7l.4-1.7c.2-.8 1-1.2 1.7-1z" clip-rule="evenodd"/><path fill="#fff" d="M205.8 22.8l-.6-1.3z"/><path fill="#8f8f8f" fill-rule="evenodd" d="M204.7 20.2c.7-.3 1.5 0 1.8.8l.6 1.3a1.4 1.4 0 1 1-2.6 1L204 22c-.3-.7 0-1.5.7-1.8z" clip-rule="evenodd"/><path fill="#fff" d="M199 27.2l-.8-.9z"/><path fill="#8f8f8f" fill-rule="evenodd" d="M197.3 25.3c.6-.5 1.5-.5 2 .1l.8 1a1.4 1.4 0 1 1-2.2 1.8l-.7-1c-.6-.5-.5-1.4.1-2z" clip-rule="evenodd"/><path fill="#fff" d="M220 19l.6-1.6z"/><path fill="#8f8f8f" fill-rule="evenodd" d="M221.1 16c.7.4 1 1.2.8 1.9l-.7 1.6a1.4 1.4 0 0 1-2.6-1l.7-1.7c.3-.7 1-1 1.8-.7z" clip-rule="evenodd"/><path fill="#b9efdc" fill-rule="evenodd" d="M185.2 56.3a1 1 0 0 1 1.4 0c2.5 2.8 5.5 5.2 9 7.4a1 1 0 0 1-1 1.7 43.6 43.6 0 0 1-9.4-7.7 1 1 0 0 1 0-1.4z" clip-rule="evenodd"/><circle cx="227.8" cy="47.5" r="34.4" fill="#93dccf"/><path fill="#b9efdc" fill-rule="evenodd" d="M215.6 23.3c.4.3.5 1 .2 1.4-9.8 13.8-7.8 33.2 4 52.3a1 1 0 0 1-1.6 1c-12.1-19.4-14.5-39.8-4-54.4a1 1 0 0 1 1.4-.3zm7.9 1.8c.5 0 1 .5 1 1.1a148 148 0 0 0 6.2 51 1 1 0 1 1-1.9.6 150.3 150.3 0 0 1-6.4-51.7c0-.6.5-1 1-1zm7.7-1.1a1 1 0 0 1 1.4.3 62 62 0 0 1 9.3 24.7 78 78 0 0 1 1.2 25 1 1 0 1 1-2-.3c1-5.6.6-15-1.2-24.4a60 60 0 0 0-9-23.8 1 1 0 0 1 .3-1.4zm7-5a1 1 0 0 1 1.3-.5c8.4 4.2 13.8 14.7 15.8 25.3 1 5.3 1.3 10.8.5 15.7-.7 4.9-2.3 9.3-5 12.3a1 1 0 0 1-1.6-1.3c2.4-2.7 4-6.6 4.7-11.3.6-4.6.5-9.9-.5-15-2-10.4-7.2-20-14.8-24a1 1 0 0 1-.4-1.3z" clip-rule="evenodd"/><path fill="#b9efdc" fill-rule="evenodd" d="M209.4 23.8c.3.5.3 1-.1 1.4-5 4.3-8.4 12.3-8.4 21.4a39 39 0 0 0 11.6 27.7 1 1 0 1 1-1.4 1.4 41 41 0 0 1-12.2-29c0-9.6 3.6-18.2 9-23a1 1 0 0 1 1.5.1z" clip-rule="evenodd"/></g></svg>