<svg xmlns="http://www.w3.org/2000/svg" fill="none" viewBox="0 0 264 84"><defs><clipPath id="b"><path fill="#fff" d="M0 0h264v83H0z" transform="translate(0 .6)"/></clipPath><clipPath id="c"><path fill="#fff" d="M0 0h264v83H0z" transform="translate(0 .6)"/></clipPath><clipPath id="a"><path fill="#fff" d="M0 0h264v83H0z" transform="translate(0 .6)"/></clipPath><clipPath id="d"><path fill="#fff" d="M0 0h264v83H0z" transform="translate(0 .6)"/></clipPath></defs><g transform="translate(139.1 11)"><path fill="#b4e4af" d="M116.6 35.5c6.7-8.5 4.7-24.7-11.1-27-8.3-1-15-.6-20.9 6.7-6.5 8.1-5.3 34.2 9.8 31.8 10.3-1.6 17.7-1.4 22.2-11.5z"/><path fill="#aae0a4" d="M60.9 50c-6.2-7.6-9.7-21.6-3.5-29.2 13-12 30.7-4.2 34.2 2 2.3 4.2 1.4 11.1.9 16C90 50.7 80.4 56.3 72.3 51.2 69.5 54.8 63 53.5 61 50z"/><path fill="#8ad0bf" fill-rule="evenodd" d="M105.8 2.7c.7.2 1 1 .9 1.6a75.2 75.2 0 0 1-1.2 4.5 7.8 7.8 0 0 0 0 4 1.3 1.3 0 1 1-2.5.9 10 10 0 0 1-.1-5.4c.2-1.2.6-2.4.9-3.5l.4-1.2c.1-.7.9-1.1 1.6-1z" clip-rule="evenodd"/><path fill="#9ccf83" fill-rule="evenodd" d="M97.6 10.7c.5-.6 1.3-.6 1.8-.1a8 8 0 0 0 4.5 1.7c1.7.2 3.6 0 5.2-.3a1.3 1.3 0 0 1 .6 2.5c-1.9.5-4 .7-6.2.4-2-.2-4.2-1-5.8-2.3-.5-.5-.6-1.3-.1-1.9z" clip-rule="evenodd"/><path fill="#8ad0bf" fill-rule="evenodd" d="M76.3 8.8c-1.2-3.9-5-9-10.6-8.8C63 5.7 71 13 75.6 13v.1l-1.4 7.5a1.3 1.3 0 1 0 2.6.5l1.4-7.5.7-4a1.4 1.4 0 0 0-2.6-.8z" clip-rule="evenodd"/><path fill="#afe3aa" d="M1.8 53C-1.8 39.4-1 28.2 14.3 25.9c8-1 15.3-.4 22.3 5.7 8 7 .9 40-17.2 31.7-7.9 2-14.8-3.3-17.6-10.1z"/><path fill="#8ad0bf" fill-rule="evenodd" d="M12.9 16.7c-6.4-9 6.2-1.8 8.8 3.7l.7-1.5a1.3 1.3 0 0 1 2.5.4c1.6-2 4-4 8-4.6 2.3-.3 6.4-.3 7.7.5-.9 4.1-5.3 6.4-9 7.3a18 18 0 0 1-4.5.2l-3.5.1a19 19 0 0 0-1 8.8 1.3 1.3 0 0 1-2.6.3c-.3-2.8-.2-5.7.9-9.2-3-.7-6-3-8-6z" clip-rule="evenodd"/><path fill="#99d792" d="M85.5 59.5c-1.7-4.8-4.8-14-2.7-19 4.8-11.4 24.9-10 33.1-4.7 7.9 5.1 3.8 18 0 24.4-2.7 4.5-4.3 11.4-11.6 9.5-2-.6-5.4-1.1-5.5-2.6-8.2 4.3-10.4.1-13.3-7.6z"/><path fill="#8ad0bf" fill-rule="evenodd" d="M105.2 28.6c10 1.3 15.7-2.8 17.7-8.8-3-3-13.8 2.6-17.7 7v-2.2a1.3 1.3 0 1 0-2.6 0c0 6.3 0 10-3.5 15.1a1.4 1.4 0 1 0 2.3 1.5c3-4.5 3.6-8.2 3.8-12.6z" clip-rule="evenodd"/><circle cx="8.3" cy="35.7" r="1.8" fill="#fff" fill-opacity=".5"/><circle cx="90.1" cy="41.3" r="1.8" fill="#fff" fill-opacity=".5"/><path fill="#9ccf83" fill-rule="evenodd" d="M68 19.2c.4-.5 1.3-.6 1.8-.1 1 1 2.6 1.4 4.5 1.4 1.7 0 3.5-.2 5.1-.4l.6-.1a1.3 1.3 0 1 1 .4 2.6h-.6c-1.6.3-3.6.6-5.5.6-2.2 0-4.5-.5-6.3-2.1-.5-.5-.6-1.4 0-2zM16.3 29c.6-.4 1.4-.2 1.8.4.8 1.2 2 1.8 3.4 2 1.4.1 3-.2 4.5-1a1.3 1.3 0 1 1 1.2 2.4 11 11 0 0 1-6 1.2 7 7 0 0 1-5.3-3.2c-.4-.6-.3-1.4.4-1.8z" clip-rule="evenodd"/><path fill="#8dc771" fill-rule="evenodd" d="M96.5 36.1c.7 0 1.4.5 1.4 1.2 0 .8.4 1.2.8 1.5.5.3 1.3.6 2.3.7 1.8.1 3.8-.2 5.3-.4l.6-.1a1.3 1.3 0 0 1 .4 2.6l-.5.1c-1.5.2-4 .6-6 .4a7.4 7.4 0 0 1-3.6-1.1 4.4 4.4 0 0 1-2-3.5c0-.7.6-1.3 1.3-1.4z" clip-rule="evenodd"/></g></svg>