<svg xmlns="http://www.w3.org/2000/svg" fill="none" viewBox="0 0 107 80"><path fill="#fff" d="M49.2438 39.7106c-1.609-15.3721 0-31.99234 0-31.99234s-9.075-.65229-16.6725 2.73564c-4.1201 2.2628-11.9199-18.73096-14.0812-6.28739-1.8666 10.74669 1.6887 11.78469-1.1788 15.65299C.0493097 43.1056 30.8685 71.0469 49.2438 69.7344c0-2.6251 1.6089-14.6517 0-30.0238z"/><ellipse cx="29.6814" cy="53.0879" fill="#FFDBD6" rx="4.53348" ry="2.96441"/><circle cx="33.2558" cy="43.5842" r="4.44675" fill="#97E7D4"/><circle cx="33.2555" cy="43.5844" r="3.57488" fill="#97E7D4"/><path fill="#FFB291" d="M21.7022 17.6478c1.0748-.7951 6.2948-3.456 8.0951-3.8639.8291-.188-7.121-9.11238-8.1816-6.48368-1.0606 2.62871-.9883 11.14258.0865 10.34758zM49.9596 53.088v-5.0568c-1.9183.465-5.6152 1.6739-5.0572 2.7899.558 1.116 3.6039 1.9763 5.0572 2.2669z"/><mask id="a" width="12" height="12" x="38" y="51" maskUnits="userSpaceOnUse"><path fill="#FFB291" d="M38.3965 51.9868h11.5628v10.5584H38.3965z"/></mask><g mask="url(#a)"><path stroke="#FFB291" stroke-linecap="round" stroke-width="2" d="M40.8906 58.776c2.3253.5813 7.3942.4186 9.068-4.8824"/></g><path fill="#FFB291" d="M104.926 43.7051L72.20965847 65.97250783l-5.87957875-8.63855855 32.71634153-22.26740783z"/><path fill="#FFEDED" d="M60.055 67.926l6.3126-10.6013 5.8653 8.6176L60.055 67.926z"/><path fill="#FFB291" fill-rule="evenodd" d="M63.3127 62.4539l-3.2584 5.4722 6.286-1.024-3.0276-4.4482z" clip-rule="evenodd"/><path stroke="#fff" stroke-linecap="round" stroke-width="2" d="M17.1158 49.1453l-15.03035.0339M18.1606 51.9058L2.99002 55.3415"/></svg>