<svg xmlns="http://www.w3.org/2000/svg" fill="none" viewBox="0 0 153 106"><circle cx="30.1028" cy="18.2332" r="5.15098" fill="#7ED2FF" transform="rotate(94.135 30.1028 18.2332)"/><circle cx="109.553" cy="32.7962" r="4.70269" fill="#61D7BB" transform="rotate(94.135 109.553 32.7962)"/><circle cx="32.395" cy="76.3702" r="4.42993" fill="#FFB291" transform="rotate(94.135 32.395 76.3702)"/><circle cx="82.9537" cy="8.79288" r="2.81312" fill="#DC8787" transform="rotate(94.135 82.9537 8.79288)"/><circle cx="16.9966" cy="83.6725" r="2.80548" fill="#DC8787" transform="rotate(94.135 16.9966 83.6725)"/><path fill="#FFF9C0" d="M12.6551 60.3014l-9.33773.5526 7.43573-5.0637-7.89886-7.5141 10.46326 2.721 9.4944-6.2228-2.6987 9.6532 9.5749 5.5337-10.5752 1.3292-2.6986 9.6532-3.7592-10.6423z"/><path stroke="#61D7BB" stroke-dasharray="2 6" stroke-linecap="round" stroke-width="4" d="M80.534 96.7943C77.5948 84.0578 61.7525 59.3915 47.0273 47.416"/><path stroke="#FFB291" stroke-dasharray="2 6" stroke-linecap="round" stroke-width="4" d="M120.506 42.7134c-13.431 8.2347-28.166 27.0952-33.507 46.439"/><path stroke="#7ED2FF" stroke-linecap="round" stroke-width="4" d="M117.965 74.9433c-7.649 3.4114-18.5523 12.2523-23.0651 23.7349"/><path stroke="#FFF9C0" stroke-linecap="round" stroke-width="4" d="M86.3661 28.6051c-4.201 6.3524-7.7776 23.6132-6.2085 32.5085"/><path fill="#7ED2FF" d="M129.361 74.5345l-5.633-.3229 4.361-2.4569-2.036-7.0146 4.837 4.4641 5.625-4.8952-1.768 7.4437 4.416 4.0711-6.23-.5701-2.134 6.4972-1.438-7.2164z"/><path fill="#61D7BB" d="M33.1104 33.0881h11.2054v11.2054H33.1104z"/><path fill="#FFF9C0" d="M86.8457 15.4221h7.57712v7.57712H86.8457z"/><path fill="#FFB291" d="M69.8037 18.731h8.53683v8.53683H69.8037z"/><path fill="#FFF9C0" d="M139.92 41.1763h12.4796v12.4796H139.92z"/><path fill="#DC8787" d="M142.647 21.3718h7.02454v7.02454H142.647z"/><path fill="#FFB291" d="M125.604 32.7961h9.39196v9.39196H125.604z"/></svg>