<svg xmlns="http://www.w3.org/2000/svg" fill="none" viewBox="0 0 23 32"><path fill="#fff" d="M22.0243 18.2769c-.7085-6.7693 0-14.08834 0-14.08834s-3.9963-.28725-7.342 1.20466c-1.8143.9965-5.24909-8.24845-6.20087-2.76873-.82198 4.73249.74366 5.18957-.5191 6.89301C.36074 19.7719 13.9325 32.0763 22.0243 31.4983c0-1.156.7085-6.4521 0-13.2214z"/><ellipse cx="13.41" cy="24.1677" fill="#FFDBD6" rx="1.99639" ry="1.30542"/><circle cx="14.9839" cy="19.9827" r="1.57425" fill="#97E7D4"/><path fill="#FFB291" d="M9.8962 8.56114c.4733-.35011 2.772-1.52188 3.5648-1.70152.3651-.08275-3.1358-4.01276-3.60288-2.85517-.46705 1.15759-.43524 4.90681.03808 4.55669zM22.3394 24.1677v-2.2268c-.8447.2048-2.4727.7371-2.227 1.2286.2457.4914 1.587.8703 2.227.9982z"/><mask id="a" width="6" height="6" x="17" y="23" maskUnits="userSpaceOnUse"><path fill="#FFB291" d="M17.248 23.6829h5.09187v4.64956H17.248z"/></mask><g mask="url(#a)"><path stroke="#FFB291" stroke-linecap="round" d="M18.3467 26.6725c1.0239.256 3.2561.1843 3.9932-2.15"/></g><path stroke="#fff" stroke-linecap="round" d="M7.87665 22.4316l-6.61884.0149M8.33614 23.6472l-6.68058 1.513"/></svg>