<svg xmlns="http://www.w3.org/2000/svg" fill="none" viewBox="0 0 264 84"><defs><clipPath id="b"><path fill="#fff" d="M0 0h264v83H0z" transform="translate(0 .6)"/></clipPath><clipPath id="c"><path fill="#fff" d="M0 0h264v83H0z" transform="translate(0 .6)"/></clipPath><clipPath id="a"><path fill="#fff" d="M0 0h264v83H0z" transform="translate(0 .6)"/></clipPath><clipPath id="d"><path fill="#fff" d="M0 0h264v83H0z" transform="translate(0 .6)"/></clipPath></defs><g clip-path="url(#c)" transform="translate(-.7)"><path fill="#9dd7c9" fill-rule="evenodd" d="M154 13.3a2.5 2.5 0 0 0 .4 1.4c.4.3.4-.1.4-.2 0-.2 0-.4-.4-.9zm-3.6-1.1a6.3 6.3 0 0 0 .8 4.6c.7 1 2 2 3.7 1.6 1.8-.3 3.2-1.3 3.6-3a5 5 0 0 0-1.2-4.1l-.8-.9c1.8-.8 4-1 5.3-.6a2 2 0 0 0 1-3.7 12 12 0 0 0-10.2 2.4 7.9 7.9 0 0 0-4.5.4 7.9 7.9 0 0 0-3.7 2.6 9 9 0 0 0-1.6 3.5 31.5 31.5 0 0 0-.5 3.5 14 14 0 0 1-.7 3m8.8-9.3a5.1 5.1 0 0 0-3 1.6c-.4.5-.7 1.2-.9 2l-.3 2.3-.2.9c-.1 1.1-.3 2.4-.8 3.7-.5 1.2-1.3 2-2 2.5a15 15 0 0 1-1.7 1 1.9 1.9 0 1 1-2.2-3l1-.6.1-.1.6-.4c.4-.3.5-.4.6-.7m13.3-7v.1z" clip-rule="evenodd"/><path fill="#9dd7c9" d="M142.9 22.6c0-1-.2-3.5-1-4.1-5.2-5.9-13.2-2.8-18.8-2.1.7-1.3 2.6-3 4-3.8 0-.2-2.4-.7-2.7-.7-3.3-.5-6.6.5-9.8.5-.4-.6 1.9-2 2.8-2.6 2.6-2 5.5-2.6 8.6-3 2-.3 4 0 5.7.2.3-.3-3.2-2.8-3.2-3.4 1.7.5 3.7.5 5.2 1 4.5 1.3 8.6 9.3 9.5 13.9"/><path fill="#bec3e2" fill-rule="evenodd" d="M157.8 44.5a6.8 6.8 0 1 0-2.5-13.3 6.8 6.8 0 0 0-13.4 1.5 6.7 6.7 0 0 0-5.5-.4 6.7 6.7 0 0 0-10.2-.8 6.2 6.2 0 1 0-7.4 8.7c-.6 1-.9 2-.9 3.1 0 3.3 2.6 6 5.8 6.2v.4c0 3.1 2.3 5.7 5.3 6.1a6.8 6.8 0 0 0 11.3 7.7 6.2 6.2 0 1 0 .7-7.3 6.9 6.9 0 0 0-4.6-3.5 6.7 6.7 0 0 0 5.7-8.5 6.6 6.6 0 0 0 2.7-3 6.9 6.9 0 0 0 1 4.4 6.8 6.8 0 1 0 11.7-.7zm-12.5-5.1l.2-.5h-.1v.5z" clip-rule="evenodd"/><path fill="#afb8e4" fill-rule="evenodd" d="M142.6 34.3a7 7 0 1 0-2.3 1.6 6.6 6.6 0 0 0 1.3 10.1 6.8 6.8 0 1 0 4.9 1 6.7 6.7 0 1 0-3.9-12.7zm-12.9 16.8a6.8 6.8 0 1 0 0-13.7 6.8 6.8 0 0 0 0 13.7zm15.6 17c0 3.8-3 7-6.7 7a6.8 6.8 0 0 1-6.8-7c0-3.8 3-7 6.8-7 3.7 0 6.7 3.2 6.7 7zM158 78.6a6.7 6.7 0 1 0 0-13.4 6.7 6.7 0 0 0 0 13.4z" clip-rule="evenodd"/><path fill="#93dccf" fill-rule="evenodd" d="M175.2 45.7a34.4 34.4 0 1 0 60.8-31z" clip-rule="evenodd"/><path fill="#f8f7f7" stroke="#93dccf" stroke-width="3" d="M218 53.2c8.5-4.3 15-10.6 18.6-17.4 3.7-6.7 4.5-14.1 1.3-20.3-3.2-6.3-9.6-10-17.2-11s-16.5.6-25 4.9a43.2 43.2 0 0 0-18.6 17.3c-3.6 6.8-4.4 14.1-1.2 20.4 3.1 6.2 9.6 9.9 17.2 11 7.6 1 16.5-.6 25-5z"/><ellipse cx="206.6" cy="31.2" fill="#ffa0a2" rx="29.6" ry="19.7" transform="rotate(-27 206.7 31.2)"/><path fill="#fff" d="M194.8 46.5l-.2 1z"/><path fill="#8f8f8f" fill-rule="evenodd" d="M195.2 45.2c.7.2 1.2 1 1 1.7l-.3 1a1.4 1.4 0 1 1-2.7-.7l.3-1c.2-.8 1-1.2 1.7-1z" clip-rule="evenodd"/><path fill="#fff" d="M201.4 44.6l.2 1.1z"/><path fill="#8f8f8f" fill-rule="evenodd" d="M201.3 43.2c.7-.1 1.4.4 1.5 1.2l.2 1.2a1.4 1.4 0 0 1-2.8.3l-.2-1.2c0-.7.5-1.4 1.3-1.5z" clip-rule="evenodd"/><path fill="#fff" d="M208.4 41.6l.6 1z"/><path fill="#8f8f8f" fill-rule="evenodd" d="M207.7 40.3c.6-.3 1.5-.1 1.9.5l.6 1.1a1.4 1.4 0 1 1-2.4 1.5l-.6-1.1c-.4-.7-.2-1.6.5-2z" clip-rule="evenodd"/><path fill="#fff" d="M191.3 43l-.6 1z"/><path fill="#8f8f8f" fill-rule="evenodd" d="M192.1 41.9c.6.4.8 1.3.4 2l-.7 1a1.4 1.4 0 0 1-2.3-1.6l.7-1c.4-.7 1.3-.8 1.9-.4z" clip-rule="evenodd"/><path fill="#fff" d="M203.4 38.6l.2 1z"/><path fill="#8f8f8f" fill-rule="evenodd" d="M203 37.3c.7-.2 1.5.2 1.7 1l.3 1a1.4 1.4 0 0 1-2.7.7l-.3-1c-.2-.7.2-1.5 1-1.7z" clip-rule="evenodd"/><path fill="#fff" d="M211.8 33.3l.7.7z"/><path fill="#8f8f8f" fill-rule="evenodd" d="M210.9 32.3c.5-.5 1.4-.5 2 0l.6.7a1.4 1.4 0 1 1-2 2l-.7-.7c-.5-.5-.5-1.4 0-2z" clip-rule="evenodd"/><path fill="#fff" d="M189.3 31.2l-1.1-.5z"/><path fill="#8f8f8f" fill-rule="evenodd" d="M186.9 30.2c.2-.7 1-1 1.8-.8l1 .5a1.4 1.4 0 1 1-1 2.6l-1-.5c-.8-.2-1.1-1-.8-1.8z" clip-rule="evenodd"/><path fill="#fff" d="M193.5 25.5l-1-.9z"/><path fill="#8f8f8f" fill-rule="evenodd" d="M191.4 23.7c.5-.6 1.3-.6 2-.1l1 .9a1.4 1.4 0 1 1-1.8 2.1l-1-.9c-.7-.5-.7-1.4-.2-2z" clip-rule="evenodd"/><path fill="#fff" d="M199.8 20.4l-.9-1z"/><path fill="#8f8f8f" fill-rule="evenodd" d="M198 18.3c.6-.5 1.5-.4 2 .2l.9 1a1.4 1.4 0 1 1-2.2 1.8l-.9-1c-.5-.6-.4-1.5.2-2z" clip-rule="evenodd"/><path fill="#fff" d="M208.2 16.2v-1.7z"/><path fill="#8f8f8f" fill-rule="evenodd" d="M208.1 13.1c.8 0 1.5.7 1.5 1.4v1.7a1.4 1.4 0 1 1-2.8 0v-1.6c0-.8.6-1.4 1.3-1.5z" clip-rule="evenodd"/><path fill="#fff" d="M215.7 15l.4-1.7z"/><path fill="#8f8f8f" fill-rule="evenodd" d="M216.4 12c.8.2 1.3 1 1 1.7l-.3 1.7a1.4 1.4 0 0 1-2.7-.6l.4-1.8c.1-.7.9-1.2 1.6-1z" clip-rule="evenodd"/><path fill="#fff" d="M206.3 22.3l-.5-1.4z"/><path fill="#8f8f8f" fill-rule="evenodd" d="M205.2 19.6c.7-.3 1.6 0 1.8.8l.6 1.3a1.4 1.4 0 0 1-2.6 1.1l-.5-1.3c-.3-.7 0-1.6.7-1.9z" clip-rule="evenodd"/><path fill="#fff" d="M199.5 26.7l-.8-1z"/><path fill="#8f8f8f" fill-rule="evenodd" d="M197.8 24.7c.6-.5 1.5-.5 2 .1l.8 1a1.4 1.4 0 0 1-2.2 1.8l-.7-1c-.5-.5-.5-1.4.1-2z" clip-rule="evenodd"/><path fill="#fff" d="M220.4 18.4l.7-1.6z"/><path fill="#8f8f8f" fill-rule="evenodd" d="M221.6 15.5c.7.3 1 1.1.8 1.8l-.7 1.7a1.4 1.4 0 0 1-2.6-1.1l.7-1.6c.3-.8 1-1.1 1.8-.8z" clip-rule="evenodd"/><path fill="#b9efdc" fill-rule="evenodd" d="M185.7 55.7a1 1 0 0 1 1.5 0 35 35 0 0 0 9 7.4 1 1 0 0 1-1 1.7 43.6 43.6 0 0 1-9.5-7.7 1 1 0 0 1 0-1.4z" clip-rule="evenodd"/><circle cx="228.3" cy="47" r="34.4" fill="#93dccf"/><path fill="#b9efdc" fill-rule="evenodd" d="M216.1 22.7c.4.4.6 1 .2 1.4-9.8 13.8-7.8 33.2 4 52.4a1 1 0 1 1-1.6 1c-12-19.5-14.5-39.8-4-54.5a1 1 0 0 1 1.4-.3zm7.9 1.9c.5 0 1 .5 1 1-1 19 1.6 35.5 6.2 51.1a1 1 0 0 1-1.9.6 150.3 150.3 0 0 1-6.4-51.8c0-.5.5-1 1-1zm7.7-1.1a1 1 0 0 1 1.4.2 62 62 0 0 1 9.3 24.7 78 78 0 0 1 1.2 25 1 1 0 1 1-2-.3c1-5.6.6-15-1.2-24.3a60 60 0 0 0-9-23.9 1 1 0 0 1 .3-1.4zm7-5.1a1 1 0 0 1 1.3-.5c8.4 4.3 13.8 14.7 15.8 25.3 1 5.4 1.3 10.8.5 15.7-.7 4.9-2.3 9.3-5 12.3a1 1 0 0 1-1.6-1.3c2.4-2.7 4-6.6 4.7-11.3.6-4.6.5-9.8-.5-15-2-10.4-7.2-20-14.8-23.9a1 1 0 0 1-.4-1.3z" clip-rule="evenodd"/><path fill="#b9efdc" fill-rule="evenodd" d="M209.9 23.3c.3.4.3 1-.1 1.4-5 4.2-8.4 12.2-8.4 21.3A39 39 0 0 0 213 73.8a1 1 0 0 1-1.4 1.4A41 41 0 0 1 199.4 46c0-9.5 3.6-18.1 9-22.8a1 1 0 0 1 1.5 0z" clip-rule="evenodd"/></g></svg>