<svg xmlns="http://www.w3.org/2000/svg" fill="none" viewBox="0 0 31.4 29.1"><path fill="#93dccf" fill-rule="evenodd" d="M.7 18.5A15.8 15.8 0 1 0 28.6 4.3L.6 18.5z" clip-rule="evenodd"/><path fill="#f8f7f7" stroke="#93dccf" stroke-width="2" d="M20.3 22.5c3.6-1.8 6.5-4.6 8-7.5 1.6-3 2-6.2.6-9s-4.3-4.4-7.6-4.8c-3.3-.5-7.2.2-10.8 2a18.7 18.7 0 0 0-8 7.6c-1.7 3-2 6.2-.6 9s4.3 4.4 7.6 4.8c3.3.5 7.2-.2 10.8-2z"/><ellipse cx="7.8" cy="18.4" fill="#ffa0a2" rx="12.6" ry="8.4" transform="rotate(-27)"/><path fill="#8f8f8f" fill-rule="evenodd" d="M10.5 18.6c.4 0 .6.5.5 1v.4a.9.9 0 1 1-1.7-.3v-.4c.2-.5.6-.7 1-.6zm2.5-1c.4 0 .8.4.9.8v.5a.8.8 0 1 1-1.6.2v-.4c0-.4.2-.8.7-1zm2.6-1c.4-.3.9-.1 1 .2l.4.5a.8.8 0 1 1-1.4.8l-.3-.4a.8.8 0 0 1 .3-1.1zm-6.3.6c.3.3.4.8 0 1l-.1.6a.9.9 0 0 1-1.4-1l.3-.4c.2-.3.7-.4 1-.2zm4.4-2c.4 0 .8.2 1 .6v.4a.8.8 0 0 1-1.5.5v-.5c-.2-.4 0-.8.5-1zm3.2-2a1 1 0 0 1 1.2 0l.2.3a.8.8 0 1 1-1.1 1l-.3-.2a.8.8 0 0 1 0-1.1zm5.9-1.7c0-.4.6-.6 1-.4h.5a.8.8 0 1 1-.6 1.6l-.5-.1a.8.8 0 0 1-.4-1zm-16.1.9c0-.4.6-.6 1-.5l.5.2a.8.8 0 0 1-.6 1.5l-.5-.2a.8.8 0 0 1-.4-1zm1.9-3c.3-.2.8-.2 1.2 0l.4.4a.8.8 0 0 1-1 1.3l-.5-.4a.8.8 0 0 1 0-1.2zm12.7 4.4c.3-.4.8-.4 1.2-.1l.4.4a.8.8 0 0 1-1 1.2l-.5-.4a.8.8 0 0 1 0-1.1zm-9.8-6.6c.3-.3.8-.2 1 0l.5.6a.8.8 0 1 1-1.3 1l-.3-.5a.8.8 0 0 1 0-1.1zM15.9 5c.5 0 .8.3.8.8v.7a.8.8 0 0 1-1.6 0v-.8c0-.5.4-.8.8-.8zm3.6-.5c.4 0 .7.5.6 1l-.2.7a.8.8 0 1 1-1.5-.4V5c.2-.4.7-.7 1-.6zm-5 3.2c.5-.1 1 0 1 .5l.4.6a.8.8 0 0 1-1.5.6l-.2-.6c-.2-.4 0-1 .4-1zm-3.2 2.2c.4-.3 1-.2 1.2 0l.4.5a.8.8 0 0 1-1.3 1l-.3-.3a.8.8 0 0 1 0-1.2zm10.4-4c.4.3.6.7.5 1l-.3.8a.8.8 0 0 1-1.5-.6l.3-.7c0-.4.6-.6 1-.4z" clip-rule="evenodd"/><path stroke="#b9efdc" stroke-linecap="round" stroke-linejoin="round" d="M15.7 28c-1.5-.7-3-2.2-3.8-3.4m8.7 2.4c-1-.7-2.1-2.4-2.5-3.5m7.2 1a9 9 0 0 0-1.7-4m5.5-.7c0-1.3-.4-3.2-1-4.4m2.2-.4c.3-1.7 0-3.5-.7-4.8M10.3 27c-1.5-1-2.8-2-4-3.2"/></svg>