<svg xmlns="http://www.w3.org/2000/svg" fill="none" viewBox="0 0 90.3 78.6"><g clip-path="url(#clip0)" transform="translate(-171.6 -3.7)"><path fill="#93dccf" fill-rule="evenodd" d="M174.4 46.7a34.4 34.4 0 1 0 60.8-31z" clip-rule="evenodd"/><path fill="#f8f7f7" stroke="#93dccf" stroke-width="3" d="M217.3 54.2c8.4-4.3 14.9-10.6 18.5-17.4 3.7-6.7 4.5-14.1 1.3-20.3-3.2-6.3-9.6-10-17.2-11s-16.5.6-25 4.9a43.2 43.2 0 0 0-18.6 17.3c-3.6 6.8-4.4 14.1-1.3 20.4 3.2 6.2 9.7 9.9 17.3 11 7.6 1 16.5-.6 25-5z"/><ellipse cx="205.9" cy="32.2" fill="#ffa0a2" rx="29.6" ry="19.7" transform="rotate(-27 205.8 32.2)"/><path fill="#fff" d="M194 47.5l-.2 1z"/><path fill="#8f8f8f" fill-rule="evenodd" d="M194.4 46.2c.7.2 1.2 1 1 1.7l-.3 1a1.4 1.4 0 1 1-2.7-.7l.3-1c.2-.8 1-1.2 1.7-1z" clip-rule="evenodd"/><path fill="#fff" d="M200.6 45.6l.2 1.1z"/><path fill="#8f8f8f" fill-rule="evenodd" d="M200.5 44.2c.7-.1 1.4.4 1.5 1.2l.2 1.2a1.4 1.4 0 0 1-2.8.3l-.2-1.2c0-.7.5-1.4 1.3-1.5z" clip-rule="evenodd"/><path fill="#fff" d="M207.6 42.6l.6 1z"/><path fill="#8f8f8f" fill-rule="evenodd" d="M206.9 41.3c.6-.3 1.5-.1 1.9.5l.6 1.1a1.4 1.4 0 0 1-2.4 1.5l-.6-1.1c-.4-.7-.2-1.6.5-2z" clip-rule="evenodd"/><path fill="#fff" d="M190.5 44l-.6 1z"/><path fill="#8f8f8f" fill-rule="evenodd" d="M191.3 42.9c.6.4.8 1.3.4 2l-.7 1a1.4 1.4 0 0 1-2.3-1.6l.7-1c.4-.7 1.3-.8 1.9-.4z" clip-rule="evenodd"/><path fill="#fff" d="M202.6 39.6l.2 1z"/><path fill="#8f8f8f" fill-rule="evenodd" d="M202.2 38.3c.7-.2 1.5.2 1.7 1l.3 1a1.4 1.4 0 0 1-2.7.7l-.3-1c-.2-.7.2-1.5 1-1.7z" clip-rule="evenodd"/><path fill="#fff" d="M211 34.3l.7.7z"/><path fill="#8f8f8f" fill-rule="evenodd" d="M210 33.3c.6-.5 1.5-.5 2 0l.7.7a1.4 1.4 0 0 1-2 2l-.7-.7c-.5-.5-.5-1.4 0-2z" clip-rule="evenodd"/><path fill="#fff" d="M188.5 32.2l-1.1-.5z"/><path fill="#8f8f8f" fill-rule="evenodd" d="M186 31.2c.3-.7 1.2-1 1.9-.8l1 .5a1.4 1.4 0 1 1-1 2.6l-1-.5c-.8-.2-1.1-1-.8-1.8z" clip-rule="evenodd"/><path fill="#fff" d="M192.7 26.5l-1-.9z"/><path fill="#8f8f8f" fill-rule="evenodd" d="M190.6 24.7c.5-.6 1.3-.6 2-.1l1 .9a1.4 1.4 0 1 1-1.8 2.1l-1-.9c-.7-.5-.7-1.4-.2-2z" clip-rule="evenodd"/><path fill="#fff" d="M199 21.4l-.9-1z"/><path fill="#8f8f8f" fill-rule="evenodd" d="M197.2 19.3c.6-.5 1.5-.4 2 .2l.9 1a1.4 1.4 0 1 1-2.2 1.8l-.9-1c-.5-.6-.4-1.5.2-2z" clip-rule="evenodd"/><path fill="#fff" d="M207.4 17.2v-1.7z"/><path fill="#8f8f8f" fill-rule="evenodd" d="M207.3 14.1c.8 0 1.5.7 1.5 1.4v1.7a1.4 1.4 0 1 1-2.8 0v-1.6c0-.8.6-1.4 1.3-1.5z" clip-rule="evenodd"/><path fill="#fff" d="M215 16l.3-1.7z"/><path fill="#8f8f8f" fill-rule="evenodd" d="M215.6 13c.8.2 1.3 1 1 1.7l-.3 1.7a1.4 1.4 0 0 1-2.7-.6l.4-1.8c.1-.7.9-1.2 1.6-1z" clip-rule="evenodd"/><path fill="#fff" d="M205.5 23.3l-.5-1.4z"/><path fill="#8f8f8f" fill-rule="evenodd" d="M204.4 20.6c.7-.3 1.6 0 1.8.8l.6 1.3a1.4 1.4 0 0 1-2.6 1.1l-.5-1.3c-.3-.7 0-1.6.7-1.9z" clip-rule="evenodd"/><path fill="#fff" d="M198.7 27.7l-.8-1z"/><path fill="#8f8f8f" fill-rule="evenodd" d="M197 25.7c.6-.5 1.5-.5 2 .1l.8 1a1.4 1.4 0 0 1-2.2 1.8l-.7-1c-.5-.5-.5-1.4.1-2z" clip-rule="evenodd"/><path fill="#fff" d="M219.6 19.4l.7-1.6z"/><path fill="#8f8f8f" fill-rule="evenodd" d="M220.8 16.5c.7.3 1 1.1.8 1.8l-.7 1.7a1.4 1.4 0 0 1-2.6-1.1l.7-1.6c.3-.8 1.1-1.1 1.8-.8z" clip-rule="evenodd"/><path fill="#b9efdc" fill-rule="evenodd" d="M185 56.7a1 1 0 0 1 1.4 0c2.4 2.8 5.4 5.3 9 7.4a1 1 0 0 1-1 1.7 43.6 43.6 0 0 1-9.5-7.7 1 1 0 0 1 0-1.4z" clip-rule="evenodd"/><circle cx="227.5" cy="48" r="34.4" fill="#93dccf"/><path fill="#b9efdc" fill-rule="evenodd" d="M215.3 23.7c.4.4.6 1 .2 1.4-9.8 13.8-7.8 33.2 4 52.4a1 1 0 1 1-1.6 1c-12-19.5-14.5-39.8-4-54.5a1 1 0 0 1 1.4-.3zM223.2 25.6c.5 0 1 .5 1 1-1 19 1.6 35.5 6.2 51.1a1 1 0 0 1-1.9.6 150.3 150.3 0 0 1-6.4-51.8c0-.5.5-1 1-1zM230.9 24.5a1 1 0 0 1 1.4.2 62 62 0 0 1 9.3 24.7 78 78 0 0 1 1.2 25 1 1 0 1 1-2-.3c1-5.6.6-15-1.2-24.3a60 60 0 0 0-9-23.9 1 1 0 0 1 .3-1.4zM237.9 19.4a1 1 0 0 1 1.3-.5c8.4 4.3 13.8 14.7 15.8 25.3 1 5.4 1.3 10.8.5 15.7-.7 4.9-2.3 9.3-5 12.3a1 1 0 0 1-1.6-1.3c2.4-2.7 4-6.6 4.7-11.3.6-4.6.5-9.8-.5-15-2-10.4-7.2-20-14.8-23.9a1 1 0 0 1-.4-1.3z" clip-rule="evenodd"/><path fill="#b9efdc" fill-rule="evenodd" d="M209 24.3c.4.4.4 1 0 1.4-5 4.2-8.4 12.2-8.4 21.3a39 39 0 0 0 11.6 27.8 1 1 0 1 1-1.4 1.4A41 41 0 0 1 198.6 47c0-9.5 3.6-18.1 9-22.8a1 1 0 0 1 1.5 0z" clip-rule="evenodd"/></g><defs id="defs83"><clipPath id="clip0"><path id="rect80" fill="#fff" d="M0 0h264v83H0z" transform="translate(0 .6)"/></clipPath></defs></svg>
