<svg xmlns="http://www.w3.org/2000/svg" fill="none" viewBox="0 0 58.3 75"><path fill="#9dd7c9" fill-rule="evenodd" d="M39.5 9.7a2.5 2.5 0 0 0 .3 1.4c.5.3.4-.1.5-.2 0-.2 0-.4-.5-.9l-.3-.3zm-3.7-1.2a6.3 6.3 0 0 0 .9 4.7c.7 1 2 1.9 3.7 1.6 1.7-.3 3.2-1.3 3.6-3a5 5 0 0 0-1.2-4.1 7.4 7.4 0 0 0-.8-.9c1.8-.8 4-1 5.3-.6a1.9 1.9 0 0 0 1-3.7A12 12 0 0 0 38.1 5c-1.4-.3-3-.2-4.5.3A7.8 7.8 0 0 0 29.8 8a9 9 0 0 0-1.5 3.5l-.4 2.7-.2.7a14 14 0 0 1-.6 3m8.7-9.3a5 5 0 0 0-3 1.6c-.4.6-.6 1.2-.8 2.1l-.4 2.2-.1 1c-.2 1.1-.4 2.4-.9 3.7-.4 1.2-1.2 2-2 2.5l-.8.5h-.1l-.7.5a1.9 1.9 0 1 1-2.3-3l1-.7h.2l.6-.4c.4-.3.5-.5.6-.7m13.2-7v.1z" clip-rule="evenodd"/><path fill="#9dd7c9" d="M28.4 19c0-1.1-.2-3.5-1-4.1-5.2-6-13.2-2.8-18.8-2.1.7-1.3 2.6-3 3.9-3.8 0-.2-2.3-.7-2.6-.7-3.4-.5-6.6.5-9.9.5-.3-.6 2-2 2.9-2.6 2.6-2 5.4-2.6 8.6-3 2-.4 4 0 5.7.1C17.5 3 14 .6 14 0c1.7.5 3.6.5 5.2 1 4.4 1.3 8.5 9.3 9.4 13.9"/><path fill="#bec3e2" fill-rule="evenodd" d="M43.3 40.8a6.8 6.8 0 1 0-2.6-13.2A6.8 6.8 0 0 0 27.3 29a6.7 6.7 0 0 0-5.4-.4 6.7 6.7 0 0 0-10.2-.8 6.2 6.2 0 1 0-7.5 8.7 6.2 6.2 0 0 0 5 9.3v.4c0 3 2.3 5.7 5.3 6A6.8 6.8 0 0 0 25.8 60a6.2 6.2 0 1 0 .6-7.2 6.9 6.9 0 0 0-4.6-3.5 6.7 6.7 0 0 0 5.8-8.5c1.1-.7 2-1.8 2.6-3a6.9 6.9 0 0 0 1 4.4 6.8 6.8 0 1 0 11.7-.7l.4-.7zm-12.5-5l.2-.5-.2-.1v.6z" clip-rule="evenodd"/><path fill="#afb8e4" fill-rule="evenodd" d="M28 30.7A7 7 0 0 0 23 19a7 7 0 1 0 2.8 13.3A6.6 6.6 0 0 0 27 42.4a6.8 6.8 0 1 0 4.8 1 6.7 6.7 0 1 0-3.8-12.7zM15.3 47.5a6.8 6.8 0 1 0 0-13.7 6.8 6.8 0 0 0 0 13.7zm15.5 17c0 3.8-3 7-6.7 7a6.8 6.8 0 0 1-6.7-7c0-3.8 3-7 6.7-7s6.7 3.2 6.7 7zM51.6 75a6.7 6.7 0 1 0 0-13.4 6.7 6.7 0 0 0 0 13.4z" clip-rule="evenodd"/></svg>
