<svg xmlns="http://www.w3.org/2000/svg" fill="none" viewBox="0 0 28 32"><path fill="#AAE0A4" d="M2.4 24.3C1 21-1 14.7.5 11.2c3.3-7.9 17.1-7 22.8-3.2 5.4 3.5 2.6 12.4 0 16.7-2 3.1-3 7.9-8 6.6-1.4-.4-3.8-.8-3.8-1.8-5.6 3-7.2 0-9.1-5.2z"/><path fill="#8AD0BF" fill-rule="evenodd" d="M15.8 6.8c6.3.5 10-2.2 11.3-6.2-1.8-1.8-7.7 1-11 3.6l.1-3a1 1 0 1 0-1.9 0c0 1.9 0 3.3-.2 4.7-.3 1.3-.8 2.6-2 4a1 1 0 1 0 1.6 1.2c1.1-1.5 1.7-3 2-4.3z" clip-rule="evenodd"/><path fill="#9CCF83" fill-rule="evenodd" d="M10 8.1c.4 0 .9.4 1 .9 0 .5.2.8.5 1 .3.2.8.4 1.5.4 1.2.1 2.6 0 3.7-.2h.4a1 1 0 0 1 .2 1.8H17c-1 .2-2.7.4-4.2.3-.8 0-1.7-.3-2.4-.7A3.1 3.1 0 0 1 9 9c0-.5.4-1 1-1z" clip-rule="evenodd"/></svg>