<svg xmlns="http://www.w3.org/2000/svg" viewBox="0 0 9 9"><path fill="#839e98" d="M2.64 1.124a1.499 1.499 0 0 0-1.071.438l-.007.007a1.518 1.518 0 0 0 .011 2.146L2.708 4.85a3.1 3.1 0 0 1-.019-.294c0-.097.027-.223.042-.28l-.861-.861a1.089 1.089 0 0 1-.01-1.548l.007-.006a1.089 1.089 0 0 1 1.55.01l1.729 1.73a1.089 1.089 0 0 1 .011 1.55l-.006.006a.912.912 0 0 1-.308.23c-.112.041-.177.13-.132.268.05.153.223.135.335.099a1.196 1.196 0 0 0 .403-.299l.006-.006a1.518 1.518 0 0 0-.01-2.146l-1.73-1.73a1.529 1.529 0 0 0-1.075-.449zm1.506 2.088h-.003c-.255.064-.398.128-.598.327l-.006.007A1.518 1.518 0 0 0 3.55 5.69l1.731 1.732a1.52 1.52 0 0 0 2.146.01l.007-.006a1.518 1.518 0 0 0-.012-2.145L6.24 4.099c.01.08.03.2.03.31 0 .106-.01.227-.02.296l.874.875a1.089 1.089 0 0 1 .011 1.55l-.006.006a1.089 1.089 0 0 1-1.55-.011L3.85 5.393a1.089 1.089 0 0 1-.01-1.55l.006-.006a.776.776 0 0 1 .367-.209c.064-.031.178-.108.158-.247-.023-.143-.155-.167-.224-.169z"/></svg>

