<svg xmlns="http://www.w3.org/2000/svg" id="logo-svg" viewBox="0 0 200 200">
  <path d="M100 0l100 100-100 100L0 100z" opacity=".08" fill-opacity=".59"/>
  <path d="M100 8.66s-25.984 0-25.984 26.3C73.7 60.946 91.34 86.93 100 86.93c8.66 0 25.984-25.985 25.984-51.97 0-26.456-25.827-26.456-25.827-26.456z" fill="#259193"/>
  <path d="M191.34 100s0-25.984-26.3-26.142c-26.142-.472-51.97 17.323-51.97 25.827 0 8.976 25.985 26.3 51.97 26.3 26.3 0 26.3-25.985 26.3-25.985z" fill="#30bdbf"/>
  <path d="M8.66 100s0-25.984 25.986-25.984C60.946 73.7 86.93 91.34 86.93 100c0 8.66-26.143 25.984-51.97 25.984-26.456 0-26.456-25.827-26.456-25.827z" fill="#72a114"/>
  <path d="M155.118 42.52s-9.134-9.134-18.425 0c-9.45 9.448-12.284 24.724-9.134 27.874 3.15 3.15 18.424 0 27.558-9.45 9.45-8.976 0-18.267 0-18.267z" fill="#259193"/>
  <path d="M45.67 42.52s9.133-9.134 18.424 0c9.45 9.448 12.284 24.724 9.134 27.874-3.15 3.15-18.425 0-27.56-9.45-9.448-8.976 0-18.267 0-18.267z" fill="#14a176"/>
  <path d="M155.118 156.535s-9.134 9.45-18.425 0c-9.45-9.133-12.284-24.567-9.134-27.716 3.15-3.15 18.424 0 27.558 9.448 9.45 8.976 0 18.267 0 18.267z" fill="#50d1d3"/>
  <path d="M45.67 156.535s9.133 9.45 18.424 0c9.45-9.133 12.284-24.567 9.134-27.716-3.15-3.15-18.425 0-27.56 9.448-9.448 8.976 0 18.267 0 18.267z" fill="#94c20a"/>
  <path d="M100 191.34s-26.142 0-26.142-26.3c-.472-25.985 17.323-51.97 25.827-51.97 8.66 0 26.142 25.985 26.142 51.97 0 26.3-25.984 26.3-25.984 26.3z" fill="#a0d009"/>
</svg>
