<svg viewBox="0 0 826 206" fill="none" xmlns="http://www.w3.org/2000/svg"><g opacity=".4"><rect x="489.5" y="1.5" width="192" height="123" rx="6.5" stroke="#5292AF" stroke-width="3" stroke-dasharray="8 8"/><rect x="245.5" y="1.5" width="192" height="123" rx="6.5" stroke="#5292AF" stroke-width="3" stroke-dasharray="8 8"/><rect x="1.5" y="1.5" width="192" height="123" rx="6.5" stroke="#5292AF" stroke-width="3" stroke-dasharray="8 8"/><path fill="#216D7E" d="M587 120h50v13h-50z"/><path d="M599.034 127.5V96c.5-1.333 2.1-4 4.5-4 3 0 5 1.5 4.5 4-.4 2-.167 17.833 0 25.5" stroke="#5292AF" stroke-width="3"/><path d="M608.034 108.5h9V122" stroke="#5292AF" stroke-width="3"/><path d="M618.034 111h8.5v3.5m0 10v-10m0 0c1.333-.667 4.3-1.6 5.5 0 1.5 2 5 3.5 4.5 11.5-.4 6.4-4.167 24.667-6 33h-28c-3.334-8.667-10.7-26.7-13.5-29.5-2.8-2.8-3.167-7.167-3-9h7l5.5 5.5" stroke="#5292AF" stroke-width="3"/><path d="M658 73c46 3.167 143.6 36.1 166 142.5" stroke="#5292AF" stroke-width="4" stroke-dasharray="8 8"/></g></svg>
