<svg id="rules"  width="62" height="71" fill="none" xmlns="http://www.w3.org/2000/svg"><rect y="14.3568" width="38" height="57" rx="3" transform="rotate(-22.198 0 14.3568)" fill="#D2E7A0"/><rect x="12" y="13.2994" width="38" height="57" rx="3" transform="rotate(-11.075 12 13.2994)" fill="#65D5D6"/><rect x="24" y="14" width="38" height="57" rx="3" fill="#5DC0C0"/><path d="M40.043 44.8955v-1.084c0-.9375.2002-1.7529.6006-2.4463.4003-.6933 1.1328-1.4306 2.1972-2.2119 1.0254-.7324 1.6992-1.3281 2.0215-1.7871.332-.459.4981-.9717.4981-1.5381 0-.6347-.2344-1.1181-.7032-1.4502-.4687-.332-1.123-.498-1.9629-.498-1.4648 0-3.1347.4785-5.0097 1.4355l-1.5967-3.208c2.1777-1.2207 4.4873-1.831 6.9287-1.831 2.0117 0 3.6084.4834 4.79 1.4502 1.1914.9668 1.7872 2.2558 1.7872 3.8672 0 1.0742-.2442 2.0019-.7325 2.7832-.4883.7812-1.416 1.6601-2.7832 2.6367-.9375.6933-1.5332 1.2207-1.7871 1.582-.2441.3613-.3662.835-.3662 1.4209v.8789H40.043zm-.4688 5.0098c0-.8203.2197-1.4405.6592-1.8604.4395-.4199 1.0791-.6299 1.9189-.6299.8106 0 1.4356.2149 1.875.6446.4493.4297.6739 1.0449.6739 1.8457 0 .7715-.2246 1.3818-.6739 1.831-.4492.4395-1.0742.6592-1.875.6592-.8203 0-1.455-.2148-1.9043-.6445-.4492-.4395-.6738-1.0547-.6738-1.8457z" fill="#fff"/></svg>
