<svg class="spinner" width="37" height="37" viewBox="0 0 37 37" fill="none" xmlns="http://www.w3.org/2000/svg">
<mask id="mask0" mask-type="alpha" maskUnits="userSpaceOnUse" x="0" y="0" width="37" height="37">
<path fill-rule="evenodd" clip-rule="evenodd" d="M18.5 37C28.7173 37 37 28.7173 37 18.5C37 8.28273 28.7173 0 18.5 0C8.28273 0 0 8.28273 0 18.5C0 28.7173 8.28273 37 18.5 37ZM18.5 33C26.5081 33 33 26.5081 33 18.5C33 10.4919 26.5081 4 18.5 4C10.4919 4 4 10.4919 4 18.5C4 26.5081 10.4919 33 18.5 33Z" fill="white"/>
</mask>
<g mask="url(#mask0)">
<path d="M18.381 16.7394C18.2017 17.097 2.81765 3.90152 -4.85194 -2.74091L9.24447 -10.7747C12.3647 -1.7523 18.5602 16.3818 18.381 16.7394Z" fill="#199091"/>
<path d="M18.0544 17.8757C17.7101 18.0792 11.923 -1.34497 9.07253 -11.0825L25.2736 -10.2025C23.0107 -0.927888 18.3988 17.6722 18.0544 17.8757Z" fill="#5292AF"/>
<path d="M16.8934 19.3096C16.6454 18.9957 35.1134 10.6458 44.3784 6.51007L45.6879 22.6821C36.1931 21.6887 17.1414 19.6234 16.8934 19.3096Z" fill="#709F2E"/>
<path d="M16.0023 18.5327C15.9637 18.1346 36.0111 21.1162 46.0396 22.6567L38.3827 36.9613C30.9386 30.9844 16.0408 18.9308 16.0023 18.5327Z" fill="#3DAAA5"/>
<path d="M18.408 17.0191C18.6306 16.6868 32.244 31.7023 39.0228 39.2515L24.0326 45.4597C22.065 36.118 18.1854 17.3515 18.408 17.0191Z" fill="#4FBFB5"/>
<path d="M15.3275 15.0123C15.6656 14.7986 22.0336 34.0401 25.1753 43.6876L8.95512 43.2947C10.9384 33.9563 14.9894 15.2261 15.3275 15.0123Z" fill="#5292AF"/>
<path d="M14.4365 15.0018C14.8352 14.9704 11.4957 34.9613 9.77613 44.9606L-4.38933 37.0493C1.71978 29.7132 14.0377 15.0332 14.4365 15.0018Z" fill="#297091"/>
<path d="M18.3502 18.6729C18.6646 18.9202 2.65533 31.3496 -5.38862 37.5334L-10.4363 22.1136C-0.97179 20.8636 18.0358 18.4256 18.3502 18.6729Z" fill="#9ECD35"/>
<path d="M17.5353 17.3677C17.7129 17.7261 -2.08415 22.0694 -12.0049 24.1962L-9.93613 8.10366C-0.853005 11.0423 17.3576 17.0093 17.5353 17.3677Z" fill="#9ECD35"/>
<path d="M17.6105 17.4997C17.6127 17.8997 -2.08023 13.1062 -11.9269 10.6595L-3.00013 -2.88904C3.86918 3.74056 17.6083 17.0997 17.6105 17.4997Z" fill="#1ABCBD"/>
<path d="M19.7622 16.5261C19.3919 16.5517 22.6667 -1.96999 24.3503 -11.2341L37.426 -3.76791C31.6924 2.98606 20.1325 16.5004 19.7622 16.5261Z" fill="#297091"/>
<path d="M18.0191 17.5595C17.6909 17.3812 31.3301 1.86657 38.1907 -5.86843L44.8658 8.25102C36.0536 11.4282 18.3473 17.7379 18.0191 17.5595Z" fill="#9ECD35"/>
</g>
</svg>
