<?xml version="1.0" encoding="UTF-8" standalone="no"?>
<svg
   xmlns:dc="http://purl.org/dc/elements/1.1/"
   xmlns:cc="http://creativecommons.org/ns#"
   xmlns:rdf="http://www.w3.org/1999/02/22-rdf-syntax-ns#"
   xmlns:svg="http://www.w3.org/2000/svg"
   xmlns="http://www.w3.org/2000/svg"
   xmlns:sodipodi="http://sodipodi.sourceforge.net/DTD/sodipodi-0.dtd"
   xmlns:inkscape="http://www.inkscape.org/namespaces/inkscape"
   fill="none"
   viewBox="0 0 264 84"
   version="1.1"
   id="svg115"
   sodipodi:docname="fruits.svg"
   inkscape:version="0.92.3 (2405546, 2018-03-11)">
  <metadata
     id="metadata119">
    <rdf:RDF>
      <cc:Work
         rdf:about="">
        <dc:format>image/svg+xml</dc:format>
        <dc:type
           rdf:resource="http://purl.org/dc/dcmitype/StillImage" />
        <dc:title></dc:title>
      </cc:Work>
    </rdf:RDF>
  </metadata>
  <sodipodi:namedview
     pagecolor="#ffffff"
     bordercolor="#666666"
     borderopacity="1"
     objecttolerance="10"
     gridtolerance="10"
     guidetolerance="10"
     inkscape:pageopacity="0"
     inkscape:pageshadow="2"
     inkscape:window-width="2560"
     inkscape:window-height="1381"
     id="namedview117"
     showgrid="false"
     inkscape:zoom="1.2386364"
     inkscape:cx="127.15596"
     inkscape:cy="42"
     inkscape:window-x="0"
     inkscape:window-y="0"
     inkscape:window-maximized="1"
     inkscape:current-layer="layer5" />
  <defs
     id="defs113">
    <clipPath
       id="clip0">
      <path
         fill="#fff"
         d="M0 0h264v83H0z"
         transform="translate(0 .6)"
         id="path110" />
    </clipPath>
    <clipPath
       id="clip0-3">
      <path
         transform="translate(0 .6)"
         d="M0 0h264v83H0z"
         fill="#fff"
         id="rect108" />
    </clipPath>
    <clipPath
       id="clip0-6">
      <path
         transform="translate(0 .6)"
         d="M0 0h264v83H0z"
         fill="#fff"
         id="rect88" />
    </clipPath>
    <clipPath
       id="clip0-7">
      <path
         style="fill:#ffffff"
         inkscape:connector-curvature="0"
         d="M 0,0 H 264 V 83 H 0 Z"
         transform="translate(0,0.6)"
         id="path110-5" />
    </clipPath>
    <clipPath
       id="clip0-35">
      <path
         transform="translate(0 .6)"
         d="M0 0h264v83H0z"
         fill="#fff"
         id="rect80" />
    </clipPath>
  </defs>
  <g
     inkscape:groupmode="layer"
     id="layer1"
     inkscape:label="equilibrate"
     style="display:none">
    <g
       clip-path="url(#clip0-7)"
       id="g108"
       transform="translate(-0.2999954,-0.05542936)">
      <path
         d="m 42.2,14.3 a 2.4,2.4 0 0 0 0.1,0.9 l 0.2,0.5 C 43,16 42.9,15.6 43,15.5 43,15.3 42.9,15.1 42.5,14.6 Z m -3.7,-1.1 a 6.3,6.3 0 0 0 0.9,4.6 c 0.7,1 1.9,2 3.6,1.6 1.8,-0.3 3.3,-1.3 3.6,-3 a 5,5 0 0 0 -1.1,-4.1 l -0.8,-0.9 c 1.8,-0.8 4,-1 5.3,-0.6 A 1.9646883,1.9646883 0 0 0 51,7 12,12 0 0 0 40.8,9.4 C 39.4,9.1 37.8,9.2 36.2,9.8 A 7.8,7.8 0 0 0 32.5,12.4 9,9 0 0 0 31,16 l -0.5,2.7 v 0.8 l -0.7,3 m 8.7,-9.3 a 5.1,5.1 0 0 0 -3,1.6 c -0.4,0.5 -0.7,1.2 -0.9,2 l -0.3,2.3 -0.1,0.9 c -0.2,1.1 -0.4,2.4 -0.9,3.7 -0.5,1.2 -1.2,2 -2,2.5 a 15.1,15.1 0 0 1 -1.6,1 1.9,1.9 0 1 1 -2.3,-3 l 1,-0.6 0.1,-0.1 0.7,-0.4 c 0.3,-0.3 0.5,-0.4 0.6,-0.7 m 13.2,-7 v 0.1 z"
         id="path2"
         inkscape:connector-curvature="0"
         style="clip-rule:evenodd;fill:#9dd7c9;fill-rule:evenodd" />
      <path
         d="m 31,23.6 c 0,-1 -0.2,-3.5 -1,-4.1 -5.1,-5.9 -13.2,-2.8 -18.8,-2.1 0.7,-1.3 2.7,-3 4,-3.8 0,-0.2 -2.4,-0.7 -2.6,-0.7 -3.4,-0.5 -6.7,0.5 -9.9,0.5 -0.3,-0.6 2,-2 2.9,-2.6 2.5,-2 5.4,-2.6 8.6,-3 2,-0.3 3.9,0 5.6,0.2 0.3,-0.3 -3.1,-2.8 -3.1,-3.4 1.7,0.5 3.6,0.5 5.1,1 4.5,1.3 8.6,9.3 9.5,13.9"
         id="path4"
         inkscape:connector-curvature="0"
         style="fill:#9dd7c9" />
      <path
         d="M 46,45.5 A 6.8,6.8 0 1 0 43.4,32.2 6.8,6.8 0 0 0 30,33.7 6.7,6.7 0 0 0 24.6,33.3 6.7,6.7 0 0 0 14.4,32.5 a 6.2,6.2 0 1 0 -7.5,8.7 6.2,6.2 0 0 0 5,9.3 v 0.4 c 0,3.1 2.3,5.7 5.3,6.1 a 6.8370315,6.8370315 0 0 0 11.3,7.7 6.2,6.2 0 1 0 0.6,-7.3 6.9,6.9 0 0 0 -4.6,-3.5 6.7,6.7 0 0 0 5.8,-8.5 c 1.1,-0.7 2,-1.7 2.6,-3 a 6.8,6.8 0 0 0 1,4.4 c -0.4,1 -0.7,2 -0.7,3 a 6.8,6.8 0 1 0 12.5,-3.7 z m -12.5,-5.1 0.2,-0.5 h -0.2 z"
         id="path6"
         inkscape:connector-curvature="0"
         style="clip-rule:evenodd;fill:#bec3e2;fill-rule:evenodd" />
      <path
         d="m 30.7,35.3 a 7,7 0 0 0 -5,-11.7 7,7 0 1 0 2.7,13.4 6.6,6.6 0 0 0 1.4,10 6.8,6.8 0 1 0 4.8,1 6.7,6.7 0 1 0 -3.9,-12.7 z M 18,52.1 a 6.85,6.85 0 1 0 0,-13.7 6.85,6.85 0 0 0 0,13.7 z m 15.5,17 c 0,3.8 -3,7 -6.7,7 a 6.8,6.8 0 0 1 -6.7,-7 c 0,-3.8 3,-7 6.7,-7 3.7,0 6.7,3.2 6.7,7 z m 12.8,10.5 a 6.7,6.7 0 1 0 0,-13.4 6.7,6.7 0 0 0 0,13.4 z"
         id="path8"
         inkscape:connector-curvature="0"
         style="clip-rule:evenodd;fill:#afb8e4;fill-rule:evenodd" />
      <path
         d="m 158.4,44.6 c 6.7,-8.5 4.7,-24.7 -11.1,-27 -8.3,-1 -15,-0.6 -20.9,6.7 -6.5,8.1 -5.3,34.2 9.8,31.8 10.3,-1.6 17.6,-1.4 22.2,-11.5 z"
         id="path10"
         inkscape:connector-curvature="0"
         style="fill:#c9f2c5" />
      <path
         d="M 102.6,59.2 C 96.5,51.5 93,37.5 99.1,29.9 c 13,-12 30.8,-4.2 34.3,2 2.3,4.2 1.4,11.1 0.9,16 -2.4,11.9 -12.1,17.5 -20.2,12.4 -2.9,3.6 -9.3,2.3 -11.5,-1.1 z"
         id="path12"
         inkscape:connector-curvature="0"
         style="fill:#c6edc2" />
      <path
         d="m 147.6,11.8 c 0.7,0.2 1,1 0.9,1.6 l -0.4,1.4 c -0.3,1 -0.7,2 -0.9,3.1 a 7.8,7.8 0 0 0 0,4 1.328533,1.328533 0 1 1 -2.5,0.9 c -0.6,-1.8 -0.4,-3.7 0,-5.4 0.2,-1.2 0.5,-2.4 0.9,-3.5 l 0.3,-1.2 c 0.2,-0.7 1,-1.1 1.7,-1 z"
         id="path14"
         inkscape:connector-curvature="0"
         style="clip-rule:evenodd;fill:#9dd7c9;fill-rule:evenodd" />
      <path
         d="m 139.4,19.8 c 0.4,-0.6 1.3,-0.6 1.8,-0.1 1.1,1 2.7,1.5 4.4,1.7 1.8,0.2 3.6,0 5.2,-0.3 a 1.3,1.3 0 1 1 0.7,2.5 c -1.9,0.5 -4,0.7 -6.2,0.4 -2,-0.2 -4.2,-1 -5.8,-2.3 -0.6,-0.5 -0.6,-1.3 -0.1,-1.9 z"
         id="path16"
         inkscape:connector-curvature="0"
         style="clip-rule:evenodd;fill:#abd199;fill-rule:evenodd" />
      <path
         d="m 118.1,18 c -1.2,-4 -5,-9 -10.6,-8.9 -2.9,5.7 5.2,13 9.9,13 v 0.1 l -1.5,7.5 a 1.3238202,1.3238202 0 0 0 2.6,0.5 c 0.7,-3.2 1,-5.2 1.4,-7.5 l 0.8,-4 A 1.3462912,1.3462912 0 0 0 118.1,18 Z"
         id="path18"
         inkscape:connector-curvature="0"
         style="clip-rule:evenodd;fill:#9dd7c9;fill-rule:evenodd" />
      <path
         d="m 109.7,28.3 c 0.5,-0.5 1.3,-0.6 1.9,-0.1 1,1 2.6,1.4 4.5,1.4 1.7,0 3.5,-0.2 5.1,-0.4 l 0.6,-0.1 a 1.3086252,1.3086252 0 0 1 0.3,2.6 h -0.5 c -1.6,0.3 -3.6,0.6 -5.5,0.6 -2.2,0 -4.5,-0.5 -6.3,-2.1 -0.5,-0.5 -0.6,-1.4 0,-2 z"
         id="path20"
         inkscape:connector-curvature="0"
         style="clip-rule:evenodd;fill:#abd199;fill-rule:evenodd" />
      <path
         d="m 127.3,68.6 c -1.8,-4.8 -4.8,-14 -2.7,-19 4.8,-11.4 24.9,-10 33.1,-4.7 7.9,5.1 3.8,18 0,24.4 -2.7,4.5 -4.3,11.4 -11.6,9.5 -2,-0.6 -5.4,-1.1 -5.5,-2.6 -8.2,4.3 -10.5,0.1 -13.3,-7.6 z"
         id="path22"
         inkscape:connector-curvature="0"
         style="fill:#b4e4af" />
      <path
         d="m 147,37.7 c 10,1.3 15.7,-2.8 17.7,-8.8 -3,-3 -13.8,2.6 -17.7,7 v -2.2 a 1.3,1.3 0 1 0 -2.6,0 c 0,6.3 0,10 -3.5,15.1 a 1.3313527,1.3313527 0 1 0 2.2,1.5 c 3,-4.5 3.7,-8.2 3.9,-12.6 z"
         id="path24"
         inkscape:connector-curvature="0"
         style="clip-rule:evenodd;fill:#9dd7c9;fill-rule:evenodd" />
      <path
         d="m 138.3,45.2 c 0.7,0 1.3,0.5 1.4,1.2 0,0.8 0.4,1.2 0.8,1.5 0.5,0.3 1.3,0.6 2.3,0.7 1.8,0.1 3.8,-0.2 5.3,-0.4 h 0.6 a 1.3,1.3 0 1 1 0.4,2.5 l -0.6,0.1 c -1.5,0.2 -3.8,0.6 -6,0.4 a 7.4,7.4 0 0 1 -3.5,-1.1 4.4,4.4 0 0 1 -2,-3.5 c 0,-0.7 0.5,-1.3 1.3,-1.4 z"
         id="path26"
         inkscape:connector-curvature="0"
         style="clip-rule:evenodd;fill:#abd199;fill-rule:evenodd" />
      <path
         d="m 63.3,62.2 c -3.6,-13.8 -2.7,-25 12.6,-27.3 8,-1 15.3,-0.4 22.2,5.7 8,7 1,40 -17.2,31.7 -7.8,2 -14.7,-3.3 -17.6,-10.1 z"
         id="path28"
         inkscape:connector-curvature="0"
         style="fill:#b4e4af" />
      <path
         d="m 74.4,25.8 c -6.3,-9 6.3,-1.8 8.9,3.7 L 83.9,28 a 1.3,1.3 0 0 1 2.5,0.4 c 1.6,-2 4.1,-4 8,-4.6 2.3,-0.3 6.4,-0.3 7.8,0.5 -1,4.1 -5.3,6.4 -9.1,7.3 -1.4,0.3 -2.9,0.3 -4.4,0.2 l -3.5,0.1 a 19,19 0 0 0 -1,8.8 1.3583078,1.3583078 0 1 1 -2.7,0.3 c -0.3,-2.8 -0.2,-5.7 1,-9.2 -3,-0.7 -6,-3 -8,-6 z"
         id="path30"
         inkscape:connector-curvature="0"
         style="clip-rule:evenodd;fill:#9dd7c9;fill-rule:evenodd" />
      <path
         d="m 77.8,38.1 c 0.6,-0.4 1.4,-0.2 1.8,0.4 0.9,1.2 2,1.8 3.4,2 1.4,0.1 3,-0.2 4.5,-1 a 1.3416408,1.3416408 0 1 1 1.2,2.4 11,11 0 0 1 -6,1.2 7,7 0 0 1 -5.3,-3.2 C 77,39.3 77.2,38.5 77.8,38.1 Z"
         id="path32"
         inkscape:connector-curvature="0"
         style="clip-rule:evenodd;fill:#abd199;fill-rule:evenodd" />
      <circle
         cx="69.900002"
         cy="44.799999"
         id="ellipse34"
         r="1.8"
         style="fill:#ffffff;fill-opacity:0.5" />
      <circle
         cx="131.89999"
         cy="50.400002"
         id="ellipse36"
         r="1.8"
         style="fill:#ffffff;fill-opacity:0.5" />
      <path
         d="m 174.7,45.8 1.8,4.2 a 34.4,34.4 0 1 0 59,-35.2 z"
         id="path38"
         inkscape:connector-curvature="0"
         style="clip-rule:evenodd;fill:#93dccf;fill-rule:evenodd" />
      <path
         d="m 217.6,53.2 c 8.4,-4.3 15,-10.6 18.6,-17.3 3.6,-6.8 4.4,-14.2 1.3,-20.4 -3.2,-6.3 -9.7,-9.9 -17.3,-11 -7.6,-1 -16.5,0.6 -25,4.9 a 43.2,43.2 0 0 0 -18.5,17.3 c -3.6,6.8 -4.5,14.2 -1.3,20.4 3.2,6.3 9.6,10 17.2,11 7.7,1 16.6,-0.6 25,-4.9 z"
         id="path40"
         inkscape:connector-curvature="0"
         style="fill:#f8f7f7;stroke:#93dccf;stroke-width:3" />
      <ellipse
         cx="206.2"
         cy="31.299999"
         rx="29.6"
         ry="19.700001"
         transform="rotate(-27,206.2,31.3)"
         id="ellipse42"
         style="fill:#ffa0a2" />
      <path
         d="m 194.4,46.6 -0.3,1 z"
         id="path44"
         inkscape:connector-curvature="0"
         style="fill:#ffffff" />
      <path
         d="m 194.7,45.2 c 0.8,0.2 1.2,1 1,1.7 l -0.3,1 a 1.4,1.4 0 1 1 -2.7,-0.7 l 0.3,-1 c 0.2,-0.8 1,-1.2 1.7,-1 z"
         id="path46"
         inkscape:connector-curvature="0"
         style="clip-rule:evenodd;fill:#8f8f8f;fill-rule:evenodd" />
      <path
         d="m 201,44.6 0.1,1.2 z"
         id="path48"
         inkscape:connector-curvature="0"
         style="fill:#ffffff" />
      <path
         d="m 200.8,43.2 c 0.8,-0.1 1.5,0.4 1.6,1.2 l 0.1,1.2 a 1.4142136,1.4142136 0 0 1 -2.8,0.4 l -0.1,-1.2 c -0.1,-0.8 0.4,-1.5 1.2,-1.6 z"
         id="path50"
         inkscape:connector-curvature="0"
         style="clip-rule:evenodd;fill:#8f8f8f;fill-rule:evenodd" />
      <path
         d="m 208,41.6 0.6,1 z"
         id="path52"
         inkscape:connector-curvature="0"
         style="fill:#ffffff" />
      <path
         d="m 207.2,40.4 c 0.7,-0.4 1.5,-0.2 2,0.5 l 0.6,1 a 1.4150972,1.4150972 0 1 1 -2.4,1.5 l -0.7,-1.1 c -0.4,-0.7 -0.2,-1.5 0.5,-2 z"
         id="path54"
         inkscape:connector-curvature="0"
         style="clip-rule:evenodd;fill:#8f8f8f;fill-rule:evenodd" />
      <path
         d="m 190.9,43 -0.7,1 z"
         id="path56"
         inkscape:connector-curvature="0"
         style="fill:#ffffff" />
      <path
         d="m 191.6,42 c 0.7,0.3 0.9,1.2 0.4,1.9 l -0.6,1 A 1.4422205,1.4422205 0 0 1 189,43.3 l 0.7,-1 c 0.4,-0.6 1.3,-0.8 2,-0.4 z"
         id="path58"
         inkscape:connector-curvature="0"
         style="clip-rule:evenodd;fill:#8f8f8f;fill-rule:evenodd" />
      <path
         d="m 202.9,38.7 0.3,1 z"
         id="path60"
         inkscape:connector-curvature="0"
         style="fill:#ffffff" />
      <path
         d="m 202.5,37.3 c 0.8,-0.2 1.5,0.2 1.7,1 l 0.3,1 a 1.4,1.4 0 0 1 -2.7,0.7 l -0.2,-1 c -0.3,-0.7 0.2,-1.5 1,-1.7 z"
         id="path62"
         inkscape:connector-curvature="0"
         style="clip-rule:evenodd;fill:#8f8f8f;fill-rule:evenodd" />
      <path
         d="M 211.4,33.4 212,34 Z"
         id="path64"
         inkscape:connector-curvature="0"
         style="fill:#ffffff" />
      <path
         d="m 210.4,32.4 c 0.6,-0.6 1.4,-0.6 2,0 L 213,33 a 1.4142136,1.4142136 0 1 1 -2,2 l -0.6,-0.6 c -0.6,-0.6 -0.6,-1.5 0,-2 z"
         id="path66"
         inkscape:connector-curvature="0"
         style="clip-rule:evenodd;fill:#8f8f8f;fill-rule:evenodd" />
      <path
         d="m 188.8,31.2 -1,-0.4 z"
         id="path68"
         inkscape:connector-curvature="0"
         style="fill:#ffffff" />
      <path
         d="m 186.4,30.3 c 0.3,-0.8 1.1,-1.1 1.8,-0.8 l 1.1,0.4 a 1.4,1.4 0 1 1 -1,2.6 l -1.1,-0.4 c -0.7,-0.3 -1,-1.1 -0.8,-1.8 z"
         id="path70"
         inkscape:connector-curvature="0"
         style="clip-rule:evenodd;fill:#8f8f8f;fill-rule:evenodd" />
      <path
         d="m 193,25.6 -1,-1 z"
         id="path72"
         inkscape:connector-curvature="0"
         style="fill:#ffffff" />
      <path
         d="m 190.9,23.8 c 0.5,-0.6 1.4,-0.7 2,-0.2 l 1,0.9 a 1.4,1.4 0 0 1 -1.8,2.1 l -1,-0.9 c -0.6,-0.5 -0.7,-1.3 -0.2,-2 z"
         id="path74"
         inkscape:connector-curvature="0"
         style="clip-rule:evenodd;fill:#8f8f8f;fill-rule:evenodd" />
      <path
         d="m 199.3,20.5 -0.9,-1.1 z"
         id="path76"
         inkscape:connector-curvature="0"
         style="fill:#ffffff" />
      <path
         d="m 197.6,18.3 c 0.6,-0.5 1.4,-0.4 2,0.2 l 0.8,1 a 1.421267,1.421267 0 1 1 -2.2,1.8 l -0.8,-1 c -0.5,-0.6 -0.4,-1.5 0.2,-2 z"
         id="path78"
         inkscape:connector-curvature="0"
         style="clip-rule:evenodd;fill:#8f8f8f;fill-rule:evenodd" />
      <path
         d="M 207.7,16.2 V 14.6 Z"
         id="path80"
         inkscape:connector-curvature="0"
         style="fill:#ffffff" />
      <path
         d="m 207.7,13.2 c 0.8,0 1.4,0.6 1.4,1.4 v 1.6 a 1.4,1.4 0 1 1 -2.8,0 v -1.6 c 0,-0.8 0.6,-1.4 1.4,-1.4 z"
         id="path82"
         inkscape:connector-curvature="0"
         style="clip-rule:evenodd;fill:#8f8f8f;fill-rule:evenodd" />
      <path
         d="m 215.3,15.1 0.4,-1.7 z"
         id="path84"
         inkscape:connector-curvature="0"
         style="fill:#ffffff" />
      <path
         d="m 216,12 c 0.7,0.2 1.2,1 1,1.7 l -0.4,1.7 a 1.4,1.4 0 0 1 -2.7,-0.6 l 0.4,-1.7 c 0.2,-0.8 1,-1.3 1.7,-1 z"
         id="path86"
         inkscape:connector-curvature="0"
         style="clip-rule:evenodd;fill:#8f8f8f;fill-rule:evenodd" />
      <path
         d="M 205.9,22.3 205.3,21 Z"
         id="path88"
         inkscape:connector-curvature="0"
         style="fill:#ffffff" />
      <path
         d="m 204.8,19.7 c 0.7,-0.3 1.5,0 1.8,0.7 l 0.5,1.4 a 1.4,1.4 0 0 1 -2.5,1 L 204,21.5 c -0.3,-0.7 0,-1.5 0.8,-1.8 z"
         id="path90"
         inkscape:connector-curvature="0"
         style="clip-rule:evenodd;fill:#8f8f8f;fill-rule:evenodd" />
      <path
         d="m 199,26.7 -0.7,-1 z"
         id="path92"
         inkscape:connector-curvature="0"
         style="fill:#ffffff" />
      <path
         d="m 197.3,24.7 c 0.6,-0.5 1.5,-0.4 2,0.2 l 0.8,0.9 a 1.4,1.4 0 0 1 -2.1,1.8 l -0.8,-0.9 c -0.5,-0.6 -0.4,-1.5 0.1,-2 z"
         id="path94"
         inkscape:connector-curvature="0"
         style="clip-rule:evenodd;fill:#8f8f8f;fill-rule:evenodd" />
      <path
         d="m 220,18.5 0.6,-1.7 z"
         id="path96"
         inkscape:connector-curvature="0"
         style="fill:#ffffff" />
      <path
         d="m 221.2,15.5 c 0.7,0.3 1,1.1 0.7,1.8 l -0.6,1.7 a 1.4,1.4 0 0 1 -2.6,-1 l 0.6,-1.7 c 0.3,-0.7 1.1,-1 1.9,-0.8 z"
         id="path98"
         inkscape:connector-curvature="0"
         style="clip-rule:evenodd;fill:#8f8f8f;fill-rule:evenodd" />
      <path
         d="m 185.3,55.8 a 1,1 0 0 1 1.4,0 c 2.5,2.7 5.5,5.2 9,7.4 a 1,1 0 0 1 -1,1.7 43.6,43.6 0 0 1 -9.5,-7.7 1,1 0 0 1 0,-1.4 z"
         id="path100"
         inkscape:connector-curvature="0"
         style="clip-rule:evenodd;fill:#b9efdc;fill-rule:evenodd" />
      <circle
         cx="227.89999"
         cy="47"
         r="34.400002"
         id="circle102"
         style="fill:#93dccf" />
      <path
         d="m 215.6,22.8 c 0.5,0.3 0.6,1 0.3,1.4 -9.9,13.7 -7.8,33.2 4,52.3 a 1,1 0 0 1 -1.7,1 c -12,-19.4 -14.5,-39.8 -4,-54.5 a 1,1 0 0 1 1.4,-0.2 z m 7.9,1.8 c 0.6,0 1,0.5 1,1 -1,19 1.6,35.6 6.3,51.1 a 1.0440307,1.0440307 0 0 1 -2,0.6 150.3,150.3 0 0 1 -6.3,-51.7 c 0,-0.6 0.5,-1 1,-1 z m 7.7,-1.1 a 1,1 0 0 1 1.4,0.2 62,62 0 0 1 9.4,24.7 78,78 0 0 1 1.2,25.1 1.0111874,1.0111874 0 1 1 -2,-0.3 c 1,-5.7 0.6,-15 -1.2,-24.4 a 60,60 0 0 0 -9,-23.9 1,1 0 0 1 0.2,-1.4 z m 7,-5.1 a 1,1 0 0 1 1.4,-0.4 c 8.3,4.2 13.7,14.6 15.8,25.3 1,5.3 1.2,10.8 0.5,15.7 -0.7,4.8 -2.4,9.2 -5.1,12.3 a 1.0259142,1.0259142 0 0 1 -1.5,-1.4 c 2.4,-2.6 4,-6.6 4.6,-11.2 0.7,-4.7 0.5,-10 -0.5,-15 -2,-10.4 -7.2,-20.1 -14.7,-24 a 1,1 0 0 1 -0.5,-1.3 z"
         id="path104"
         inkscape:connector-curvature="0"
         style="clip-rule:evenodd;fill:#b9efdc;fill-rule:evenodd" />
      <path
         d="m 209.4,23.3 c 0.4,0.4 0.3,1 0,1.4 -5,4.3 -8.4,12.3 -8.5,21.4 a 39,39 0 0 0 11.7,27.7 1.0259142,1.0259142 0 0 1 -1.5,1.4 A 41,41 0 0 1 199,46.1 c 0,-9.6 3.6,-18.2 9.1,-23 a 1,1 0 0 1 1.4,0.2 z"
         id="path106"
         inkscape:connector-curvature="0"
         style="clip-rule:evenodd;fill:#b9efdc;fill-rule:evenodd" />
    </g>
  </g>
  <g
     inkscape:groupmode="layer"
     id="layer2"
     inkscape:label="medium_big"
     style="display:none"
     sodipodi:insensitive="true">
    <g
       style="fill:none"
       id="g284"
       transform="translate(61.299995,2.6994169)">
      <g
         id="g221"
         transform="translate(-61.5,-3.3)"
         clip-path="url(#clip0-3)">
        <path
           id="path123"
           d="m 158.3,45.1 c 6.7,-8.5 4.8,-24.7 -11,-27 -8.4,-1 -15,-0.6 -21,6.8 -6.4,8 -5.3,34.1 9.8,31.7 10.3,-1.5 17.7,-1.4 22.2,-11.5 z"
           inkscape:connector-curvature="0"
           style="fill:#c9f2c5" />
        <path
           id="path125"
           d="M 102.6,59.7 C 96.5,52 92.9,38 99,30.5 c 13,-12.1 30.8,-4.3 34.2,2 2.3,4.2 1.5,11 1,16 -2.5,11.8 -12.2,17.4 -20.2,12.3 -2.9,3.7 -9.3,2.3 -11.5,-1.1 z"
           inkscape:connector-curvature="0"
           style="fill:#c6edc2" />
        <path
           id="path127"
           d="m 147.5,12.3 c 0.7,0.2 1.1,1 1,1.7 l -0.5,1.4 -0.8,3 a 7.8,7.8 0 0 0 0,4 1.328533,1.328533 0 0 1 -2.5,0.9 c -0.6,-1.8 -0.5,-3.7 -0.1,-5.4 0.2,-1.1 0.6,-2.4 1,-3.4 0,-0.5 0.2,-0.9 0.3,-1.3 0.2,-0.7 1,-1 1.6,-0.9 z"
           inkscape:connector-curvature="0"
           style="clip-rule:evenodd;fill:#9dd7c9;fill-rule:evenodd" />
        <path
           id="path129"
           d="m 139.3,20.3 c 0.5,-0.5 1.3,-0.6 1.9,-0.1 1,1 2.6,1.5 4.4,1.7 1.7,0.2 3.6,0 5.2,-0.3 a 1.3341664,1.3341664 0 1 1 0.6,2.6 c -1.8,0.4 -4,0.6 -6.1,0.4 -2.1,-0.3 -4.2,-1 -5.9,-2.4 -0.5,-0.5 -0.6,-1.3 0,-1.9 z"
           inkscape:connector-curvature="0"
           style="clip-rule:evenodd;fill:#abd199;fill-rule:evenodd" />
        <path
           id="path131"
           d="m 118,18.5 c -1.2,-4 -5,-9 -10.5,-8.9 -2.9,5.8 5.2,13 9.8,13 a 132.3,132.3 0 0 1 -1.4,7.6 1.3238202,1.3238202 0 1 0 2.6,0.5 l 1.4,-7.5 0.7,-4 a 1.3,1.3 0 0 0 -2.5,-0.7 z"
           inkscape:connector-curvature="0"
           style="clip-rule:evenodd;fill:#9dd7c9;fill-rule:evenodd" />
        <path
           id="path133"
           d="m 109.7,28.8 c 0.5,-0.5 1.3,-0.5 1.8,0 1.1,1 2.7,1.3 4.6,1.4 1.7,0 3.4,-0.3 5,-0.5 h 0.6 a 1.3,1.3 0 1 1 0.4,2.5 l -0.5,0.1 c -1.7,0.3 -3.7,0.6 -5.6,0.5 -2.1,0 -4.5,-0.5 -6.2,-2.1 -0.6,-0.5 -0.6,-1.3 -0.1,-1.9 z"
           inkscape:connector-curvature="0"
           style="clip-rule:evenodd;fill:#abd199;fill-rule:evenodd" />
        <path
           id="path135"
           d="m 127.2,69.1 c -1.7,-4.7 -4.8,-13.9 -2.6,-19 4.7,-11.4 24.8,-10 33,-4.6 8,5 3.9,18 0,24.4 -2.7,4.5 -4.2,11.3 -11.5,9.4 -2,-0.5 -5.5,-1.1 -5.6,-2.5 -8.1,4.2 -10.4,0 -13.3,-7.7 z"
           inkscape:connector-curvature="0"
           style="fill:#b4e4af" />
        <path
           id="path137"
           d="m 147,38.3 c 10,1.2 15.7,-2.9 17.7,-8.9 -3.1,-3 -13.8,2.7 -17.7,7 v -2.2 a 1.35,1.35 0 0 0 -2.7,0 c 0,6.4 0,10 -3.4,15.2 a 1.3038405,1.3038405 0 0 0 2.2,1.4 c 3,-4.5 3.7,-8.1 3.8,-12.5 z"
           inkscape:connector-curvature="0"
           style="clip-rule:evenodd;fill:#9dd7c9;fill-rule:evenodd" />
        <path
           id="path139"
           d="m 138.2,45.7 c 0.8,0 1.4,0.5 1.5,1.3 0,0.7 0.3,1.2 0.8,1.4 0.5,0.4 1.2,0.6 2.2,0.7 1.8,0.2 3.8,-0.1 5.4,-0.4 h 0.5 a 1.3152946,1.3152946 0 1 1 0.4,2.6 h -0.5 c -1.5,0.3 -3.9,0.6 -6,0.4 a 7.4,7.4 0 0 1 -3.5,-1 4.4,4.4 0 0 1 -2,-3.5 c 0,-0.8 0.5,-1.4 1.2,-1.5 z"
           inkscape:connector-curvature="0"
           style="clip-rule:evenodd;fill:#abd199;fill-rule:evenodd" />
        <path
           id="path141"
           d="M 63.3,62.7 C 59.7,49 60.5,37.7 75.9,35.4 c 8,-1 15.2,-0.4 22.2,5.8 8,7 1,39.9 -17.2,31.6 -7.9,2 -14.8,-3.3 -17.6,-10 z"
           inkscape:connector-curvature="0"
           style="fill:#b4e4af" />
        <path
           id="path143"
           d="m 74.4,26.4 c -6.4,-9.1 6.3,-1.9 8.8,3.7 l 0.7,-1.5 a 1.3,1.3 0 0 1 2.5,0.4 c 1.6,-2 4,-4.1 8,-4.6 2.3,-0.3 6.4,-0.3 7.7,0.5 -0.9,4 -5.3,6.4 -9,7.2 -1.4,0.4 -3,0.3 -4.4,0.3 H 85 a 19,19 0 0 0 -1,8.9 1.3038405,1.3038405 0 0 1 -2.6,0.2 c -0.3,-2.8 -0.2,-5.6 0.9,-9.2 -3,-0.7 -6,-2.9 -8,-6 z"
           inkscape:connector-curvature="0"
           style="clip-rule:evenodd;fill:#9dd7c9;fill-rule:evenodd" />
        <path
           id="path145"
           d="m 77.8,38.6 c 0.6,-0.4 1.4,-0.2 1.8,0.4 0.8,1.3 2,1.9 3.4,2 1.4,0.2 3,-0.2 4.5,-1 a 1.3416408,1.3416408 0 1 1 1.2,2.4 11,11 0 0 1 -6,1.3 7,7 0 0 1 -5.3,-3.2 C 77,39.9 77.2,39.1 77.8,38.6 Z"
           inkscape:connector-curvature="0"
           style="clip-rule:evenodd;fill:#abd199;fill-rule:evenodd" />
        <circle
           id="ellipse147"
           cy="45.299999"
           cx="69.800003"
           r="1.8"
           style="fill:#ffffff;fill-opacity:0.5" />
        <circle
           id="ellipse149"
           cy="50.900002"
           cx="131.89999"
           r="1.8"
           style="fill:#ffffff;fill-opacity:0.5" />
        <path
           id="path151"
           d="m 174.7,46.3 c 0.5,1.4 1,2.9 1.8,4.2 a 34.4,34.4 0 1 0 59,-35.1 z"
           inkscape:connector-curvature="0"
           style="clip-rule:evenodd;fill:#93dccf;fill-rule:evenodd" />
        <path
           id="path153"
           d="m 217.5,53.8 c 8.5,-4.3 15,-10.6 18.6,-17.4 3.7,-6.7 4.5,-14.1 1.3,-20.4 -3.2,-6.2 -9.6,-9.9 -17.2,-10.9 -7.6,-1 -16.5,0.5 -25,4.8 a 43.2,43.2 0 0 0 -18.6,17.4 c -3.6,6.7 -4.4,14.1 -1.3,20.4 3.2,6.2 9.7,9.9 17.3,10.9 7.6,1 16.5,-0.5 25,-4.8 z"
           inkscape:connector-curvature="0"
           style="fill:#f8f7f7;stroke:#93dccf;stroke-width:3" />
        <ellipse
           id="ellipse155"
           transform="rotate(-27,206.1,31.8)"
           ry="19.700001"
           rx="29.6"
           cy="31.799999"
           cx="206.10001"
           style="fill:#ffa0a2" />
        <path
           id="path157"
           d="M 194.3,47 194,48.1 Z"
           inkscape:connector-curvature="0"
           style="fill:#ffffff" />
        <path
           id="path159"
           d="m 194.7,45.7 c 0.7,0.2 1.2,1 1,1.8 l -0.3,1 a 1.4,1.4 0 0 1 -2.7,-0.7 l 0.3,-1 c 0.2,-0.8 1,-1.3 1.7,-1 z"
           inkscape:connector-curvature="0"
           style="clip-rule:evenodd;fill:#8f8f8f;fill-rule:evenodd" />
        <path
           id="path161"
           d="m 201,45.1 v 1.2 z"
           inkscape:connector-curvature="0"
           style="fill:#ffffff" />
        <path
           id="path163"
           d="m 200.7,43.7 c 0.8,0 1.5,0.5 1.6,1.2 l 0.2,1.2 a 1.4142136,1.4142136 0 1 1 -2.8,0.4 l -0.2,-1.2 c 0,-0.8 0.5,-1.5 1.2,-1.6 z"
           inkscape:connector-curvature="0"
           style="clip-rule:evenodd;fill:#8f8f8f;fill-rule:evenodd" />
        <path
           id="path165"
           d="m 207.9,42.1 0.6,1.1 z"
           inkscape:connector-curvature="0"
           style="fill:#ffffff" />
        <path
           id="path167"
           d="m 207.2,41 c 0.6,-0.5 1.5,-0.3 1.9,0.4 l 0.6,1.1 a 1.4,1.4 0 0 1 -2.4,1.4 l -0.6,-1 c -0.4,-0.7 -0.2,-1.6 0.5,-2 z"
           inkscape:connector-curvature="0"
           style="clip-rule:evenodd;fill:#8f8f8f;fill-rule:evenodd" />
        <path
           id="path169"
           d="m 190.8,43.6 -0.6,1 z"
           inkscape:connector-curvature="0"
           style="fill:#ffffff" />
        <path
           id="path171"
           d="m 191.6,42.5 c 0.6,0.4 0.8,1.3 0.4,1.9 l -0.7,1 A 1.4008926,1.4008926 0 0 1 189,43.8 l 0.7,-1 c 0.4,-0.6 1.3,-0.8 1.9,-0.3 z"
           inkscape:connector-curvature="0"
           style="clip-rule:evenodd;fill:#8f8f8f;fill-rule:evenodd" />
        <path
           id="path173"
           d="m 202.9,39.2 0.2,1 z"
           inkscape:connector-curvature="0"
           style="fill:#ffffff" />
        <path
           id="path175"
           d="m 202.5,37.9 c 0.7,-0.3 1.5,0.2 1.7,1 l 0.3,0.9 a 1.4080128,1.4080128 0 0 1 -2.7,0.8 l -0.3,-1 c -0.2,-0.7 0.2,-1.5 1,-1.7 z"
           inkscape:connector-curvature="0"
           style="clip-rule:evenodd;fill:#8f8f8f;fill-rule:evenodd" />
        <path
           id="path177"
           d="m 211.3,34 0.7,0.5 z"
           inkscape:connector-curvature="0"
           style="fill:#ffffff" />
        <path
           id="path179"
           d="m 210.4,33 c 0.5,-0.6 1.4,-0.6 2,0 l 0.6,0.6 a 1.4142136,1.4142136 0 0 1 -2,2 l -0.7,-0.7 c -0.5,-0.6 -0.5,-1.4 0,-2 z"
           inkscape:connector-curvature="0"
           style="clip-rule:evenodd;fill:#8f8f8f;fill-rule:evenodd" />
        <path
           id="path181"
           d="m 188.7,31.7 -1,-0.4 z"
           inkscape:connector-curvature="0"
           style="fill:#ffffff" />
        <path
           id="path183"
           d="m 186.4,30.8 c 0.2,-0.7 1,-1 1.8,-0.8 l 1,0.4 a 1.4,1.4 0 0 1 -1,2.6 l -1,-0.4 c -0.8,-0.3 -1.1,-1 -0.8,-1.8 z"
           inkscape:connector-curvature="0"
           style="clip-rule:evenodd;fill:#8f8f8f;fill-rule:evenodd" />
        <path
           id="path185"
           d="m 193,26.1 -1,-0.9 z"
           inkscape:connector-curvature="0"
           style="fill:#ffffff" />
        <path
           id="path187"
           d="m 190.8,24.3 c 0.5,-0.6 1.4,-0.7 2,-0.2 l 1,1 a 1.4,1.4 0 1 1 -1.7,2 l -1,-0.8 c -0.7,-0.5 -0.8,-1.4 -0.3,-2 z"
           inkscape:connector-curvature="0"
           style="clip-rule:evenodd;fill:#8f8f8f;fill-rule:evenodd" />
        <path
           id="path189"
           d="m 199.3,21 -0.9,-1 z"
           inkscape:connector-curvature="0"
           style="fill:#ffffff" />
        <path
           id="path191"
           d="m 197.5,18.9 c 0.6,-0.5 1.5,-0.5 2,0.1 l 0.9,1.1 a 1.421267,1.421267 0 1 1 -2.2,1.8 l -0.9,-1 c -0.5,-0.7 -0.4,-1.6 0.2,-2 z"
           inkscape:connector-curvature="0"
           style="clip-rule:evenodd;fill:#8f8f8f;fill-rule:evenodd" />
        <path
           id="path193"
           d="M 207.7,16.8 V 15 Z"
           inkscape:connector-curvature="0"
           style="fill:#ffffff" />
        <path
           id="path195"
           d="m 207.6,13.7 c 0.8,0 1.4,0.6 1.5,1.4 v 1.6 a 1.4,1.4 0 1 1 -2.8,0 v -1.6 c 0,-0.7 0.6,-1.4 1.3,-1.4 z"
           inkscape:connector-curvature="0"
           style="clip-rule:evenodd;fill:#8f8f8f;fill-rule:evenodd" />
        <path
           id="path197"
           d="m 215.2,15.6 0.4,-1.7 z"
           inkscape:connector-curvature="0"
           style="fill:#ffffff" />
        <path
           id="path199"
           d="m 216,12.6 c 0.7,0.1 1.2,0.9 1,1.6 l -0.4,1.8 a 1.443087,1.443087 0 0 1 -2.8,-0.7 l 0.4,-1.7 c 0.2,-0.8 1,-1.2 1.7,-1 z"
           inkscape:connector-curvature="0"
           style="clip-rule:evenodd;fill:#8f8f8f;fill-rule:evenodd" />
        <path
           id="path201"
           d="m 205.8,22.8 -0.6,-1.3 z"
           inkscape:connector-curvature="0"
           style="fill:#ffffff" />
        <path
           id="path203"
           d="m 204.7,20.2 c 0.7,-0.3 1.5,0 1.8,0.8 l 0.6,1.3 a 1.4,1.4 0 1 1 -2.6,1 L 204,22 c -0.3,-0.7 0,-1.5 0.7,-1.8 z"
           inkscape:connector-curvature="0"
           style="clip-rule:evenodd;fill:#8f8f8f;fill-rule:evenodd" />
        <path
           id="path205"
           d="m 199,27.2 -0.8,-0.9 z"
           inkscape:connector-curvature="0"
           style="fill:#ffffff" />
        <path
           id="path207"
           d="m 197.3,25.3 c 0.6,-0.5 1.5,-0.5 2,0.1 l 0.8,1 a 1.421267,1.421267 0 1 1 -2.2,1.8 l -0.7,-1 c -0.6,-0.5 -0.5,-1.4 0.1,-2 z"
           inkscape:connector-curvature="0"
           style="clip-rule:evenodd;fill:#8f8f8f;fill-rule:evenodd" />
        <path
           id="path209"
           d="m 220,19 0.6,-1.6 z"
           inkscape:connector-curvature="0"
           style="fill:#ffffff" />
        <path
           id="path211"
           d="m 221.1,16 c 0.7,0.4 1,1.2 0.8,1.9 l -0.7,1.6 a 1.4,1.4 0 0 1 -2.6,-1 l 0.7,-1.7 c 0.3,-0.7 1,-1 1.8,-0.7 z"
           inkscape:connector-curvature="0"
           style="clip-rule:evenodd;fill:#8f8f8f;fill-rule:evenodd" />
        <path
           id="path213"
           d="m 185.2,56.3 a 1,1 0 0 1 1.4,0 c 2.5,2.8 5.5,5.2 9,7.4 a 1,1 0 0 1 -1,1.7 43.6,43.6 0 0 1 -9.4,-7.7 1,1 0 0 1 0,-1.4 z"
           inkscape:connector-curvature="0"
           style="clip-rule:evenodd;fill:#b9efdc;fill-rule:evenodd" />
        <circle
           id="circle215"
           r="34.400002"
           cy="47.5"
           cx="227.8"
           style="fill:#93dccf" />
        <path
           id="path217"
           d="m 215.6,23.3 c 0.4,0.3 0.5,1 0.2,1.4 -9.8,13.8 -7.8,33.2 4,52.3 a 1,1 0 0 1 -1.6,1 c -12.1,-19.4 -14.5,-39.8 -4,-54.4 a 1,1 0 0 1 1.4,-0.3 z m 7.9,1.8 c 0.5,0 1,0.5 1,1.1 -1,19 1.6,35.5 6.2,51 a 1,1 0 1 1 -1.9,0.6 150.3,150.3 0 0 1 -6.4,-51.7 c 0,-0.6 0.5,-1 1,-1 z m 7.7,-1.1 a 1,1 0 0 1 1.4,0.3 62,62 0 0 1 9.3,24.7 78,78 0 0 1 1.2,25 1.0111874,1.0111874 0 1 1 -2,-0.3 c 1,-5.6 0.6,-15 -1.2,-24.4 a 60,60 0 0 0 -9,-23.8 1,1 0 0 1 0.3,-1.4 z m 7,-5 a 1,1 0 0 1 1.3,-0.5 c 8.4,4.2 13.8,14.7 15.8,25.3 1,5.3 1.3,10.8 0.5,15.7 -0.7,4.9 -2.3,9.3 -5,12.3 a 1.0307764,1.0307764 0 0 1 -1.6,-1.3 c 2.4,-2.7 4,-6.6 4.7,-11.3 0.6,-4.6 0.5,-9.9 -0.5,-15 -2,-10.4 -7.2,-20 -14.8,-24 a 1,1 0 0 1 -0.4,-1.3 z"
           inkscape:connector-curvature="0"
           style="clip-rule:evenodd;fill:#b9efdc;fill-rule:evenodd" />
        <path
           id="path219"
           d="m 209.4,23.8 c 0.3,0.5 0.3,1 -0.1,1.4 -5,4.3 -8.4,12.3 -8.4,21.4 a 39,39 0 0 0 11.6,27.7 1,1 0 1 1 -1.4,1.4 41,41 0 0 1 -12.2,-29 c 0,-9.6 3.6,-18.2 9,-23 a 1,1 0 0 1 1.5,0.1 z"
           inkscape:connector-curvature="0"
           style="clip-rule:evenodd;fill:#b9efdc;fill-rule:evenodd" />
      </g>
    </g>
  </g>
  <g
     inkscape:groupmode="layer"
     id="layer3"
     inkscape:label="small_medium"
     sodipodi:insensitive="true"
     style="display:none">
    <g
       style="fill:none"
       id="g349"
       transform="translate(100,3.438274)">
      <path
         id="path287"
         d="m 39.5,9.7 a 2.5,2.5 0 0 0 0.3,1.4 c 0.5,0.3 0.4,-0.1 0.5,-0.2 0,-0.2 0,-0.4 -0.5,-0.9 z M 35.8,8.5 a 6.3,6.3 0 0 0 0.9,4.7 c 0.7,1 2,1.9 3.7,1.6 1.7,-0.3 3.2,-1.3 3.6,-3 A 5,5 0 0 0 42.8,7.7 L 42,6.8 C 43.8,6 46,5.8 47.3,6.2 A 1.9163768,1.9163768 0 0 0 48.3,2.5 12,12 0 0 0 38.1,5 C 36.7,4.7 35.1,4.8 33.6,5.3 A 7.9,7.9 0 0 0 29.8,8 9,9 0 0 0 28.3,11.5 l -0.4,2.7 a 69.8,69.8 0 0 1 -0.8,3.7 m 8.7,-9.3 a 5.1,5.1 0 0 0 -3,1.6 c -0.4,0.6 -0.6,1.2 -0.8,2.1 l -0.4,2.2 -0.1,1 c -0.2,1.1 -0.4,2.4 -0.9,3.7 -0.4,1.2 -1.2,2 -2,2.5 l -0.8,0.5 a 8.2,8.2 0 0 0 -0.8,0.5 1.9,1.9 0 0 1 -2.3,-3 l 1,-0.7 h 0.2 l 0.6,-0.4 c 0.4,-0.3 0.5,-0.5 0.6,-0.7 m 13.2,-7 V 11 Z"
         inkscape:connector-curvature="0"
         style="clip-rule:evenodd;fill:#9dd7c9;fill-rule:evenodd" />
      <path
         id="path289"
         d="m 28.4,19 c 0,-1.1 -0.2,-3.5 -1,-4.1 C 22.2,8.9 14.2,12.1 8.6,12.8 9.3,11.5 11.2,9.8 12.5,9 12.5,8.8 10.2,8.3 9.9,8.3 6.5,7.8 3.3,8.8 0,8.8 -0.3,8.2 2,6.8 2.9,6.2 c 2.6,-2 5.4,-2.6 8.6,-3 2,-0.4 4,0 5.7,0.1 C 17.5,3 14,0.6 14,0 c 1.7,0.5 3.6,0.5 5.2,1 4.4,1.3 8.5,9.3 9.4,13.9"
         inkscape:connector-curvature="0"
         style="fill:#9dd7c9" />
      <path
         id="path291"
         d="M 43.3,40.8 A 6.8,6.8 0 1 0 40.7,27.6 6.8,6.8 0 0 0 27.3,29 6.7,6.7 0 0 0 21.9,28.6 6.7,6.7 0 0 0 11.7,27.8 a 6.2,6.2 0 1 0 -7.5,8.7 6.2,6.2 0 0 0 5,9.3 v 0.4 c 0,3 2.3,5.7 5.3,6 a 6.8653114,6.8653114 0 0 0 11.3,7.8 6.2,6.2 0 1 0 0.6,-7.2 6.9,6.9 0 0 0 -4.6,-3.5 6.7,6.7 0 0 0 5.8,-8.5 c 1.1,-0.7 2,-1.8 2.6,-3 a 6.9,6.9 0 0 0 1,4.4 6.8,6.8 0 1 0 11.7,-0.7 z m -12.5,-5 0.2,-0.5 -0.2,-0.1 z"
         inkscape:connector-curvature="0"
         style="clip-rule:evenodd;fill:#bec3e2;fill-rule:evenodd" />
      <path
         id="path293"
         d="m 28,30.7 a 7,7 0 1 0 -2.3,1.6 6.6,6.6 0 0 0 1.4,10.1 6.8,6.8 0 1 0 4.8,1 6.7,6.7 0 1 0 -3.8,-12.7 z M 15.3,47.5 a 6.85,6.85 0 1 0 0,-13.7 6.85,6.85 0 0 0 0,13.7 z m 15.5,17 c 0,3.8 -3,7 -6.7,7 a 6.8,6.8 0 0 1 -6.7,-7 c 0,-3.8 3,-7 6.7,-7 3.7,0 6.7,3.2 6.7,7 z M 43.5,75 a 6.7,6.7 0 1 0 0,-13.4 6.7,6.7 0 0 0 0,13.4 z"
         inkscape:connector-curvature="0"
         style="clip-rule:evenodd;fill:#afb8e4;fill-rule:evenodd" />
      <path
         id="path295"
         d="m 155.7,42.6 c 6.7,-8.5 4.7,-24.7 -11.1,-27 -8.3,-1 -15,-0.6 -20.9,6.8 -6.5,8 -5.3,34.1 9.8,31.7 10.3,-1.5 17.7,-1.4 22.2,-11.5 z"
         inkscape:connector-curvature="0"
         style="fill:#c9f2c5" />
      <path
         id="path297"
         d="M 100,57.2 C 93.8,49.6 90.3,35.5 96.5,28 c 13,-12.1 30.7,-4.3 34.2,2 2.3,4.1 1.4,11 0.9,16 -2.4,11.8 -12.1,17.4 -20.2,12.3 -2.8,3.6 -9.2,2.3 -11.4,-1.1 z"
         inkscape:connector-curvature="0"
         style="fill:#c6edc2" />
      <path
         id="path299"
         d="m 144.9,9.8 c 0.7,0.2 1.1,1 0.9,1.6 l -0.4,1.4 -0.8,3.2 a 7.8,7.8 0 0 0 0,4 1.3124405,1.3124405 0 1 1 -2.5,0.8 C 141.5,19 141.6,17.1 142,15.4 a 39.8,39.8 0 0 1 1.3,-4.7 c 0.1,-0.7 0.9,-1 1.6,-0.9 z"
         inkscape:connector-curvature="0"
         style="clip-rule:evenodd;fill:#9dd7c9;fill-rule:evenodd" />
      <path
         id="path301"
         d="m 136.7,17.8 c 0.5,-0.5 1.3,-0.6 1.8,-0.1 1.1,1 2.7,1.5 4.5,1.7 1.7,0.2 3.6,0 5.2,-0.3 a 1.3,1.3 0 0 1 0.6,2.5 c -1.9,0.5 -4,0.7 -6.2,0.4 -2,-0.2 -4.2,-1 -5.8,-2.3 -0.5,-0.5 -0.6,-1.3 -0.1,-1.9 z"
         inkscape:connector-curvature="0"
         style="clip-rule:evenodd;fill:#abd199;fill-rule:evenodd" />
      <path
         id="path303"
         d="m 115.4,16 c -1.2,-4 -5,-9 -10.6,-8.9 -2.8,5.7 5.3,13 9.9,13 v 0.1 l -1.4,7.5 a 1.3238202,1.3238202 0 0 0 2.6,0.5 l 1.4,-7.5 0.7,-4 A 1.3462912,1.3462912 0 0 0 115.4,16 Z"
         inkscape:connector-curvature="0"
         style="clip-rule:evenodd;fill:#9dd7c9;fill-rule:evenodd" />
      <path
         id="path305"
         d="m 107,26.3 c 0.5,-0.5 1.4,-0.6 2,0 1,1 2.5,1.3 4.4,1.4 1.7,0 3.5,-0.3 5.1,-0.5 h 0.6 a 1.3,1.3 0 1 1 0.4,2.5 l -0.6,0.1 a 34,34 0 0 1 -5.5,0.5 c -2.2,0 -4.5,-0.5 -6.3,-2.1 -0.5,-0.5 -0.6,-1.3 0,-1.9 z"
         inkscape:connector-curvature="0"
         style="clip-rule:evenodd;fill:#abd199;fill-rule:evenodd" />
      <path
         id="path307"
         d="m 124.6,66.6 c -1.7,-4.7 -4.8,-13.9 -2.7,-19 4.8,-11.4 24.9,-10 33.1,-4.6 7.9,5 3.8,18 0,24.3 -2.7,4.5 -4.3,11.4 -11.6,9.5 -2,-0.5 -5.4,-1.1 -5.5,-2.5 -8.2,4.2 -10.4,0 -13.3,-7.7 z"
         inkscape:connector-curvature="0"
         style="fill:#b4e4af" />
      <path
         id="path309"
         d="M 144.3,35.7 C 154.3,37 160,33 162,27 c -3,-3 -13.8,2.7 -17.7,7 v -2.2 a 1.3,1.3 0 1 0 -2.6,0 c 0,6.4 0,10 -3.4,15.2 a 1.3038405,1.3038405 0 1 0 2.2,1.4 c 3,-4.5 3.6,-8.2 3.8,-12.6 z"
         inkscape:connector-curvature="0"
         style="clip-rule:evenodd;fill:#9dd7c9;fill-rule:evenodd" />
      <path
         id="path311"
         d="m 135.6,43.2 c 0.7,0 1.4,0.5 1.4,1.2 0,0.8 0.4,1.2 0.8,1.5 0.5,0.4 1.3,0.6 2.3,0.7 1.8,0.1 3.8,-0.2 5.3,-0.4 h 0.6 a 1.3,1.3 0 0 1 0.4,2.5 l -0.5,0.1 c -1.5,0.3 -4,0.6 -6,0.4 a 7.4,7.4 0 0 1 -3.6,-1 4.4,4.4 0 0 1 -2,-3.5 c 0,-0.8 0.6,-1.4 1.3,-1.5 z"
         inkscape:connector-curvature="0"
         style="clip-rule:evenodd;fill:#abd199;fill-rule:evenodd" />
      <path
         id="path313"
         d="M 60.7,60.2 C 57,46.5 57.9,35.2 73.2,32.9 c 8,-1 15.3,-0.4 22.3,5.8 7.9,7 0.9,39.9 -17.2,31.6 -8,2 -14.8,-3.3 -17.6,-10.1 z"
         inkscape:connector-curvature="0"
         style="fill:#b4e4af" />
      <path
         id="path315"
         d="m 71.7,23.8 c -6.3,-9 6.3,-1.8 8.9,3.7 l 0.7,-1.4 a 1.3,1.3 0 0 1 2.5,0.3 c 1.5,-2 4,-4 8,-4.5 2.3,-0.4 6.4,-0.3 7.7,0.5 -0.9,4 -5.3,6.4 -9,7.2 -1.4,0.3 -3,0.3 -4.5,0.3 h -3.5 a 19,19 0 0 0 -1,8.8 1.3583078,1.3583078 0 0 1 -2.7,0.3 c -0.3,-2.8 -0.2,-5.7 1,-9.2 -3,-0.7 -6,-2.9 -8,-6 z"
         inkscape:connector-curvature="0"
         style="clip-rule:evenodd;fill:#9dd7c9;fill-rule:evenodd" />
      <path
         id="path317"
         d="m 75.1,36.1 c 0.6,-0.4 1.5,-0.2 1.9,0.4 0.8,1.3 2,1.9 3.4,2 1.4,0.1 3,-0.2 4.5,-1 A 1.36565,1.36565 0 1 1 86,40 11,11 0 0 1 80,41.2 7,7 0 0 1 74.8,38.1 c -0.4,-0.6 -0.3,-1.5 0.3,-1.9 z"
         inkscape:connector-curvature="0"
         style="clip-rule:evenodd;fill:#abd199;fill-rule:evenodd" />
      <circle
         id="ellipse319"
         cy="42.799999"
         cx="67.199997"
         r="1.8"
         style="fill:#ffffff;fill-opacity:0.5" />
      <circle
         id="ellipse321"
         cy="48.400002"
         cx="129.2"
         r="1.8"
         style="fill:#ffffff;fill-opacity:0.5" />
    </g>
  </g>
  <g
     inkscape:groupmode="layer"
     id="layer4"
     inkscape:label="small_big"
     style="display:none"
     sodipodi:insensitive="true">
    <g
       style="fill:none"
       id="g483"
       transform="translate(113.8,2.6445706)">
      <g
         id="g430"
         transform="translate(-114.5,-2.7)"
         clip-path="url(#clip0-6)">
        <path
           id="path352"
           d="m 154,13.3 a 2.5,2.5 0 0 0 0.4,1.4 c 0.4,0.3 0.4,-0.1 0.4,-0.2 0,-0.2 0,-0.4 -0.4,-0.9 z m -3.6,-1.1 a 6.3,6.3 0 0 0 0.8,4.6 c 0.7,1 2,2 3.7,1.6 1.8,-0.3 3.2,-1.3 3.6,-3 a 5,5 0 0 0 -1.2,-4.1 l -0.8,-0.9 c 1.8,-0.8 4,-1 5.3,-0.6 a 1.9163768,1.9163768 0 0 0 1,-3.7 12,12 0 0 0 -10.2,2.4 c -1.4,-0.3 -2.9,-0.2 -4.5,0.4 a 7.9,7.9 0 0 0 -3.7,2.6 9,9 0 0 0 -1.6,3.5 31.5,31.5 0 0 0 -0.5,3.5 14,14 0 0 1 -0.7,3 m 8.8,-9.3 a 5.1,5.1 0 0 0 -3,1.6 c -0.4,0.5 -0.7,1.2 -0.9,2 l -0.3,2.3 -0.2,0.9 c -0.1,1.1 -0.3,2.4 -0.8,3.7 -0.5,1.2 -1.3,2 -2,2.5 a 15,15 0 0 1 -1.7,1 1.9,1.9 0 1 1 -2.2,-3 l 1,-0.6 0.1,-0.1 0.6,-0.4 c 0.4,-0.3 0.5,-0.4 0.6,-0.7 m 13.3,-7 v 0.1 z"
           inkscape:connector-curvature="0"
           style="clip-rule:evenodd;fill:#9dd7c9;fill-rule:evenodd" />
        <path
           id="path354"
           d="m 142.9,22.6 c 0,-1 -0.2,-3.5 -1,-4.1 -5.2,-5.9 -13.2,-2.8 -18.8,-2.1 0.7,-1.3 2.6,-3 4,-3.8 0,-0.2 -2.4,-0.7 -2.7,-0.7 -3.3,-0.5 -6.6,0.5 -9.8,0.5 -0.4,-0.6 1.9,-2 2.8,-2.6 2.6,-2 5.5,-2.6 8.6,-3 2,-0.3 4,0 5.7,0.2 0.3,-0.3 -3.2,-2.8 -3.2,-3.4 1.7,0.5 3.7,0.5 5.2,1 4.5,1.3 8.6,9.3 9.5,13.9"
           inkscape:connector-curvature="0"
           style="fill:#9dd7c9" />
        <path
           id="path356"
           d="m 157.8,44.5 a 6.8,6.8 0 1 0 -2.5,-13.3 6.8,6.8 0 0 0 -13.4,1.5 6.7,6.7 0 0 0 -5.5,-0.4 6.7,6.7 0 0 0 -10.2,-0.8 6.2,6.2 0 1 0 -7.4,8.7 c -0.6,1 -0.9,2 -0.9,3.1 0,3.3 2.6,6 5.8,6.2 v 0.4 c 0,3.1 2.3,5.7 5.3,6.1 a 6.8370315,6.8370315 0 0 0 11.3,7.7 6.2,6.2 0 1 0 0.7,-7.3 6.9,6.9 0 0 0 -4.6,-3.5 6.7,6.7 0 0 0 5.7,-8.5 c 1.2,-0.7 2.1,-1.7 2.7,-3 a 6.9,6.9 0 0 0 1,4.4 6.8,6.8 0 1 0 11.7,-0.7 z m -12.5,-5.1 0.2,-0.5 h -0.1 v 0.5 z"
           inkscape:connector-curvature="0"
           style="clip-rule:evenodd;fill:#bec3e2;fill-rule:evenodd" />
        <path
           id="path358"
           d="m 142.6,34.3 a 7,7 0 1 0 -2.3,1.6 6.6,6.6 0 0 0 1.3,10.1 6.8,6.8 0 1 0 4.9,1 6.7,6.7 0 1 0 -3.9,-12.7 z m -12.9,16.8 a 6.85,6.85 0 1 0 0,-13.7 6.85,6.85 0 0 0 0,13.7 z m 15.6,17 c 0,3.8 -3,7 -6.7,7 a 6.8,6.8 0 0 1 -6.8,-7 c 0,-3.8 3,-7 6.8,-7 3.7,0 6.7,3.2 6.7,7 z M 158,78.6 a 6.7,6.7 0 1 0 0,-13.4 6.7,6.7 0 0 0 0,13.4 z"
           inkscape:connector-curvature="0"
           style="clip-rule:evenodd;fill:#afb8e4;fill-rule:evenodd" />
        <path
           id="path360"
           d="M 175.2,45.7 A 34.4,34.4 0 1 0 236,14.7 Z"
           inkscape:connector-curvature="0"
           style="clip-rule:evenodd;fill:#93dccf;fill-rule:evenodd" />
        <path
           id="path362"
           d="m 218,53.2 c 8.5,-4.3 15,-10.6 18.6,-17.4 3.7,-6.7 4.5,-14.1 1.3,-20.3 -3.2,-6.3 -9.6,-10 -17.2,-11 -7.6,-1 -16.5,0.6 -25,4.9 a 43.2,43.2 0 0 0 -18.6,17.3 c -3.6,6.8 -4.4,14.1 -1.2,20.4 3.1,6.2 9.6,9.9 17.2,11 7.6,1 16.5,-0.6 25,-5 z"
           inkscape:connector-curvature="0"
           style="fill:#f8f7f7;stroke:#93dccf;stroke-width:3" />
        <ellipse
           id="ellipse364"
           transform="rotate(-27,206.7,31.2)"
           ry="19.700001"
           rx="29.6"
           cy="31.200001"
           cx="206.60001"
           style="fill:#ffa0a2" />
        <path
           id="path366"
           d="m 194.8,46.5 -0.2,1 z"
           inkscape:connector-curvature="0"
           style="fill:#ffffff" />
        <path
           id="path368"
           d="m 195.2,45.2 c 0.7,0.2 1.2,1 1,1.7 l -0.3,1 a 1.4,1.4 0 1 1 -2.7,-0.7 l 0.3,-1 c 0.2,-0.8 1,-1.2 1.7,-1 z"
           inkscape:connector-curvature="0"
           style="clip-rule:evenodd;fill:#8f8f8f;fill-rule:evenodd" />
        <path
           id="path370"
           d="m 201.4,44.6 0.2,1.1 z"
           inkscape:connector-curvature="0"
           style="fill:#ffffff" />
        <path
           id="path372"
           d="m 201.3,43.2 c 0.7,-0.1 1.4,0.4 1.5,1.2 l 0.2,1.2 a 1.4080128,1.4080128 0 0 1 -2.8,0.3 L 200,44.7 c 0,-0.7 0.5,-1.4 1.3,-1.5 z"
           inkscape:connector-curvature="0"
           style="clip-rule:evenodd;fill:#8f8f8f;fill-rule:evenodd" />
        <path
           id="path374"
           d="m 208.4,41.6 0.6,1 z"
           inkscape:connector-curvature="0"
           style="fill:#ffffff" />
        <path
           id="path376"
           d="m 207.7,40.3 c 0.6,-0.3 1.5,-0.1 1.9,0.5 l 0.6,1.1 a 1.4150972,1.4150972 0 1 1 -2.4,1.5 l -0.6,-1.1 c -0.4,-0.7 -0.2,-1.6 0.5,-2 z"
           inkscape:connector-curvature="0"
           style="clip-rule:evenodd;fill:#8f8f8f;fill-rule:evenodd" />
        <path
           id="path378"
           d="m 191.3,43 -0.6,1 z"
           inkscape:connector-curvature="0"
           style="fill:#ffffff" />
        <path
           id="path380"
           d="m 192.1,41.9 c 0.6,0.4 0.8,1.3 0.4,2 l -0.7,1 a 1.4008926,1.4008926 0 0 1 -2.3,-1.6 l 0.7,-1 c 0.4,-0.7 1.3,-0.8 1.9,-0.4 z"
           inkscape:connector-curvature="0"
           style="clip-rule:evenodd;fill:#8f8f8f;fill-rule:evenodd" />
        <path
           id="path382"
           d="m 203.4,38.6 0.2,1 z"
           inkscape:connector-curvature="0"
           style="fill:#ffffff" />
        <path
           id="path384"
           d="m 203,37.3 c 0.7,-0.2 1.5,0.2 1.7,1 l 0.3,1 A 1.4,1.4 0 0 1 202.3,40 L 202,39 c -0.2,-0.7 0.2,-1.5 1,-1.7 z"
           inkscape:connector-curvature="0"
           style="clip-rule:evenodd;fill:#8f8f8f;fill-rule:evenodd" />
        <path
           id="path386"
           d="m 211.8,33.3 0.7,0.7 z"
           inkscape:connector-curvature="0"
           style="fill:#ffffff" />
        <path
           id="path388"
           d="m 210.9,32.3 c 0.5,-0.5 1.4,-0.5 2,0 l 0.6,0.7 a 1.4142136,1.4142136 0 1 1 -2,2 l -0.7,-0.7 c -0.5,-0.5 -0.5,-1.4 0,-2 z"
           inkscape:connector-curvature="0"
           style="clip-rule:evenodd;fill:#8f8f8f;fill-rule:evenodd" />
        <path
           id="path390"
           d="m 189.3,31.2 -1.1,-0.5 z"
           inkscape:connector-curvature="0"
           style="fill:#ffffff" />
        <path
           id="path392"
           d="m 186.9,30.2 c 0.2,-0.7 1,-1 1.8,-0.8 l 1,0.5 a 1.4,1.4 0 1 1 -1,2.6 l -1,-0.5 c -0.8,-0.2 -1.1,-1 -0.8,-1.8 z"
           inkscape:connector-curvature="0"
           style="clip-rule:evenodd;fill:#8f8f8f;fill-rule:evenodd" />
        <path
           id="path394"
           d="m 193.5,25.5 -1,-0.9 z"
           inkscape:connector-curvature="0"
           style="fill:#ffffff" />
        <path
           id="path396"
           d="m 191.4,23.7 c 0.5,-0.6 1.3,-0.6 2,-0.1 l 1,0.9 a 1.4,1.4 0 1 1 -1.8,2.1 l -1,-0.9 c -0.7,-0.5 -0.7,-1.4 -0.2,-2 z"
           inkscape:connector-curvature="0"
           style="clip-rule:evenodd;fill:#8f8f8f;fill-rule:evenodd" />
        <path
           id="path398"
           d="m 199.8,20.4 -0.9,-1 z"
           inkscape:connector-curvature="0"
           style="fill:#ffffff" />
        <path
           id="path400"
           d="m 198,18.3 c 0.6,-0.5 1.5,-0.4 2,0.2 l 0.9,1 a 1.421267,1.421267 0 1 1 -2.2,1.8 l -0.9,-1 c -0.5,-0.6 -0.4,-1.5 0.2,-2 z"
           inkscape:connector-curvature="0"
           style="clip-rule:evenodd;fill:#8f8f8f;fill-rule:evenodd" />
        <path
           id="path402"
           d="M 208.2,16.2 V 14.5 Z"
           inkscape:connector-curvature="0"
           style="fill:#ffffff" />
        <path
           id="path404"
           d="m 208.1,13.1 c 0.8,0 1.5,0.7 1.5,1.4 v 1.7 a 1.4,1.4 0 1 1 -2.8,0 v -1.6 c 0,-0.8 0.6,-1.4 1.3,-1.5 z"
           inkscape:connector-curvature="0"
           style="clip-rule:evenodd;fill:#8f8f8f;fill-rule:evenodd" />
        <path
           id="path406"
           d="m 215.7,15 0.4,-1.7 z"
           inkscape:connector-curvature="0"
           style="fill:#ffffff" />
        <path
           id="path408"
           d="m 216.4,12 c 0.8,0.2 1.3,1 1,1.7 l -0.3,1.7 a 1.4,1.4 0 0 1 -2.7,-0.6 l 0.4,-1.8 c 0.1,-0.7 0.9,-1.2 1.6,-1 z"
           inkscape:connector-curvature="0"
           style="clip-rule:evenodd;fill:#8f8f8f;fill-rule:evenodd" />
        <path
           id="path410"
           d="m 206.3,22.3 -0.5,-1.4 z"
           inkscape:connector-curvature="0"
           style="fill:#ffffff" />
        <path
           id="path412"
           d="m 205.2,19.6 c 0.7,-0.3 1.6,0 1.8,0.8 l 0.6,1.3 a 1.4115594,1.4115594 0 0 1 -2.6,1.1 l -0.5,-1.3 c -0.3,-0.7 0,-1.6 0.7,-1.9 z"
           inkscape:connector-curvature="0"
           style="clip-rule:evenodd;fill:#8f8f8f;fill-rule:evenodd" />
        <path
           id="path414"
           d="m 199.5,26.7 -0.8,-1 z"
           inkscape:connector-curvature="0"
           style="fill:#ffffff" />
        <path
           id="path416"
           d="m 197.8,24.7 c 0.6,-0.5 1.5,-0.5 2,0.1 l 0.8,1 a 1.421267,1.421267 0 0 1 -2.2,1.8 l -0.7,-1 c -0.5,-0.5 -0.5,-1.4 0.1,-2 z"
           inkscape:connector-curvature="0"
           style="clip-rule:evenodd;fill:#8f8f8f;fill-rule:evenodd" />
        <path
           id="path418"
           d="m 220.4,18.4 0.7,-1.6 z"
           inkscape:connector-curvature="0"
           style="fill:#ffffff" />
        <path
           id="path420"
           d="m 221.6,15.5 c 0.7,0.3 1,1.1 0.8,1.8 l -0.7,1.7 a 1.4115594,1.4115594 0 0 1 -2.6,-1.1 l 0.7,-1.6 c 0.3,-0.8 1,-1.1 1.8,-0.8 z"
           inkscape:connector-curvature="0"
           style="clip-rule:evenodd;fill:#8f8f8f;fill-rule:evenodd" />
        <path
           id="path422"
           d="m 185.7,55.7 a 1,1 0 0 1 1.5,0 c 2.4,2.8 5.4,5.3 9,7.4 a 1,1 0 0 1 -1,1.7 43.6,43.6 0 0 1 -9.5,-7.7 1,1 0 0 1 0,-1.4 z"
           inkscape:connector-curvature="0"
           style="clip-rule:evenodd;fill:#b9efdc;fill-rule:evenodd" />
        <circle
           id="circle424"
           r="34.400002"
           cy="47"
           cx="228.3"
           style="fill:#93dccf" />
        <path
           id="path426"
           d="m 216.1,22.7 c 0.4,0.4 0.6,1 0.2,1.4 -9.8,13.8 -7.8,33.2 4,52.4 a 1,1 0 1 1 -1.6,1 C 206.7,58 204.2,37.7 214.7,23 a 1,1 0 0 1 1.4,-0.3 z m 7.9,1.9 c 0.5,0 1,0.5 1,1 -1,19 1.6,35.5 6.2,51.1 a 1,1 0 0 1 -1.9,0.6 150.3,150.3 0 0 1 -6.4,-51.8 c 0,-0.5 0.5,-1 1,-1 z m 7.7,-1.1 a 1,1 0 0 1 1.4,0.2 62,62 0 0 1 9.3,24.7 78,78 0 0 1 1.2,25 1.0111874,1.0111874 0 1 1 -2,-0.3 c 1,-5.6 0.6,-15 -1.2,-24.3 a 60,60 0 0 0 -9,-23.9 1,1 0 0 1 0.3,-1.4 z m 7,-5.1 a 1,1 0 0 1 1.3,-0.5 c 8.4,4.3 13.8,14.7 15.8,25.3 1,5.4 1.3,10.8 0.5,15.7 -0.7,4.9 -2.3,9.3 -5,12.3 a 1.0307764,1.0307764 0 0 1 -1.6,-1.3 c 2.4,-2.7 4,-6.6 4.7,-11.3 0.6,-4.6 0.5,-9.8 -0.5,-15 -2,-10.4 -7.2,-20 -14.8,-23.9 a 1,1 0 0 1 -0.4,-1.3 z"
           inkscape:connector-curvature="0"
           style="clip-rule:evenodd;fill:#b9efdc;fill-rule:evenodd" />
        <path
           id="path428"
           d="m 209.9,23.3 c 0.3,0.4 0.3,1 -0.1,1.4 -5,4.2 -8.4,12.2 -8.4,21.3 A 39,39 0 0 0 213,73.8 1,1 0 0 1 211.6,75.2 41,41 0 0 1 199.4,46 c 0,-9.5 3.6,-18.1 9,-22.8 a 1,1 0 0 1 1.5,0 z"
           inkscape:connector-curvature="0"
           style="clip-rule:evenodd;fill:#b9efdc;fill-rule:evenodd" />
      </g>
    </g>
  </g>
  <g
     inkscape:groupmode="layer"
     id="layer5"
     inkscape:label="small"
     sodipodi:insensitive="true"
     style="display:none">
    <g
       style="fill:none"
       id="g506"
       transform="translate(203.7,4.5)">
      <path
         id="path486"
         d="m 39.5,9.7 a 2.5,2.5 0 0 0 0.3,1.4 c 0.5,0.3 0.4,-0.1 0.5,-0.2 0,-0.2 0,-0.4 -0.5,-0.9 z M 35.8,8.5 a 6.3,6.3 0 0 0 0.9,4.7 c 0.7,1 2,1.9 3.7,1.6 1.7,-0.3 3.2,-1.3 3.6,-3 A 5,5 0 0 0 42.8,7.7 7.4,7.4 0 0 0 42,6.8 C 43.8,6 46,5.8 47.3,6.2 A 1.9163768,1.9163768 0 0 0 48.3,2.5 12,12 0 0 0 38.1,5 C 36.7,4.7 35.1,4.8 33.6,5.3 A 7.8,7.8 0 0 0 29.8,8 9,9 0 0 0 28.3,11.5 l -0.4,2.7 -0.2,0.7 a 14,14 0 0 1 -0.6,3 m 8.7,-9.3 a 5,5 0 0 0 -3,1.6 c -0.4,0.6 -0.6,1.2 -0.8,2.1 l -0.4,2.2 -0.1,1 c -0.2,1.1 -0.4,2.4 -0.9,3.7 -0.4,1.2 -1.2,2 -2,2.5 l -0.8,0.5 H 27.7 L 27,22.7 a 1.9,1.9 0 1 1 -2.3,-3 l 1,-0.7 h 0.2 l 0.6,-0.4 c 0.4,-0.3 0.5,-0.5 0.6,-0.7 m 13.2,-7 V 11 Z"
         inkscape:connector-curvature="0"
         style="clip-rule:evenodd;fill:#9dd7c9;fill-rule:evenodd" />
      <path
         id="path488"
         d="m 28.4,19 c 0,-1.1 -0.2,-3.5 -1,-4.1 C 22.2,8.9 14.2,12.1 8.6,12.8 9.3,11.5 11.2,9.8 12.5,9 12.5,8.8 10.2,8.3 9.9,8.3 6.5,7.8 3.3,8.8 0,8.8 -0.3,8.2 2,6.8 2.9,6.2 c 2.6,-2 5.4,-2.6 8.6,-3 2,-0.4 4,0 5.7,0.1 C 17.5,3 14,0.6 14,0 c 1.7,0.5 3.6,0.5 5.2,1 4.4,1.3 8.5,9.3 9.4,13.9"
         inkscape:connector-curvature="0"
         style="fill:#9dd7c9" />
      <path
         id="path490"
         d="M 43.3,40.8 A 6.8,6.8 0 1 0 40.7,27.6 6.8,6.8 0 0 0 27.3,29 6.7,6.7 0 0 0 21.9,28.6 6.7,6.7 0 0 0 11.7,27.8 a 6.2,6.2 0 1 0 -7.5,8.7 6.2,6.2 0 0 0 5,9.3 v 0.4 c 0,3 2.3,5.7 5.3,6 a 6.8653114,6.8653114 0 0 0 11.3,7.8 6.2,6.2 0 1 0 0.6,-7.2 6.9,6.9 0 0 0 -4.6,-3.5 6.7,6.7 0 0 0 5.8,-8.5 c 1.1,-0.7 2,-1.8 2.6,-3 a 6.9,6.9 0 0 0 1,4.4 6.8,6.8 0 1 0 11.7,-0.7 z m -12.5,-5 0.2,-0.5 -0.2,-0.1 z"
         inkscape:connector-curvature="0"
         style="clip-rule:evenodd;fill:#bec3e2;fill-rule:evenodd" />
      <path
         id="path492"
         d="M 28,30.7 A 7,7 0 0 0 23,19 7,7 0 1 0 25.8,32.3 6.6,6.6 0 0 0 27,42.4 6.8,6.8 0 1 0 31.8,43.4 6.7,6.7 0 1 0 28,30.7 Z M 15.3,47.5 a 6.85,6.85 0 1 0 0,-13.7 6.85,6.85 0 0 0 0,13.7 z m 15.5,17 c 0,3.8 -3,7 -6.7,7 a 6.8,6.8 0 0 1 -6.7,-7 c 0,-3.8 3,-7 6.7,-7 3.7,0 6.7,3.2 6.7,7 z M 51.6,75 a 6.7,6.7 0 1 0 0,-13.4 6.7,6.7 0 0 0 0,13.4 z"
         inkscape:connector-curvature="0"
         style="clip-rule:evenodd;fill:#afb8e4;fill-rule:evenodd" />
    </g>
  </g>
  <g
     inkscape:groupmode="layer"
     id="layer6"
     inkscape:label="medium"
     style="display:none"
     sodipodi:insensitive="true">
    <g
       style="fill:none"
       id="g556"
       transform="translate(139.1,10.991126)">
      <path
         id="path509"
         d="m 116.6,35.5 c 6.7,-8.5 4.7,-24.7 -11.1,-27 -8.3,-1 -15,-0.6 -20.9,6.7 -6.5,8.1 -5.3,34.2 9.8,31.8 10.3,-1.6 17.7,-1.4 22.2,-11.5 z"
         inkscape:connector-curvature="0"
         style="fill:#b4e4af" />
      <path
         id="path511"
         d="m 60.9,50 c -6.2,-7.6 -9.7,-21.6 -3.5,-29.2 13,-12 30.7,-4.2 34.2,2 2.3,4.2 1.4,11.1 0.9,16 C 90,50.7 80.4,56.3 72.3,51.2 69.5,54.8 63,53.5 61,50 Z"
         inkscape:connector-curvature="0"
         style="fill:#aae0a4" />
      <path
         id="path513"
         d="m 105.8,2.7 c 0.7,0.2 1,1 0.9,1.6 a 75.2,75.2 0 0 1 -1.2,4.5 7.8,7.8 0 0 0 0,4 1.328533,1.328533 0 1 1 -2.5,0.9 c -0.6,-1.8 -0.5,-3.7 -0.1,-5.4 0.2,-1.2 0.6,-2.4 0.9,-3.5 l 0.4,-1.2 c 0.1,-0.7 0.9,-1.1 1.6,-1 z"
         inkscape:connector-curvature="0"
         style="clip-rule:evenodd;fill:#8ad0bf;fill-rule:evenodd" />
      <path
         id="path515"
         d="m 97.6,10.7 c 0.5,-0.6 1.3,-0.6 1.8,-0.1 1.1,1 2.7,1.5 4.5,1.7 1.7,0.2 3.6,0 5.2,-0.3 a 1.3,1.3 0 0 1 0.6,2.5 c -1.9,0.5 -4,0.7 -6.2,0.4 -2,-0.2 -4.2,-1 -5.8,-2.3 -0.5,-0.5 -0.6,-1.3 -0.1,-1.9 z"
         inkscape:connector-curvature="0"
         style="clip-rule:evenodd;fill:#9ccf83;fill-rule:evenodd" />
      <path
         id="path517"
         d="M 76.3,8.8 C 75.1,4.9 71.3,-0.2 65.7,0 63,5.7 71,13 75.6,13 v 0.1 l -1.4,7.5 a 1.3238202,1.3238202 0 1 0 2.6,0.5 l 1.4,-7.5 0.7,-4 A 1.3601471,1.3601471 0 0 0 76.3,8.8 Z"
         inkscape:connector-curvature="0"
         style="clip-rule:evenodd;fill:#8ad0bf;fill-rule:evenodd" />
      <path
         id="path519"
         d="M 1.8,53 C -1.8,39.4 -1,28.2 14.3,25.9 c 8,-1 15.3,-0.4 22.3,5.7 8,7 0.9,40 -17.2,31.7 C 11.5,65.3 4.6,60 1.8,53.2 Z"
         inkscape:connector-curvature="0"
         style="fill:#afe3aa" />
      <path
         id="path521"
         d="m 12.9,16.7 c -6.4,-9 6.2,-1.8 8.8,3.7 l 0.7,-1.5 a 1.3,1.3 0 0 1 2.5,0.4 c 1.6,-2 4,-4 8,-4.6 2.3,-0.3 6.4,-0.3 7.7,0.5 -0.9,4.1 -5.3,6.4 -9,7.3 a 18,18 0 0 1 -4.5,0.2 l -3.5,0.1 a 19,19 0 0 0 -1,8.8 1.3086252,1.3086252 0 0 1 -2.6,0.3 c -0.3,-2.8 -0.2,-5.7 0.9,-9.2 -3,-0.7 -6,-3 -8,-6 z"
         inkscape:connector-curvature="0"
         style="clip-rule:evenodd;fill:#8ad0bf;fill-rule:evenodd" />
      <path
         id="path523"
         d="m 85.5,59.5 c -1.7,-4.8 -4.8,-14 -2.7,-19 4.8,-11.4 24.9,-10 33.1,-4.7 7.9,5.1 3.8,18 0,24.4 -2.7,4.5 -4.3,11.4 -11.6,9.5 -2,-0.6 -5.4,-1.1 -5.5,-2.6 -8.2,4.3 -10.4,0.1 -13.3,-7.6 z"
         inkscape:connector-curvature="0"
         style="fill:#99d792" />
      <path
         id="path525"
         d="m 105.2,28.6 c 10,1.3 15.7,-2.8 17.7,-8.8 -3,-3 -13.8,2.6 -17.7,7 v -2.2 a 1.3,1.3 0 1 0 -2.6,0 c 0,6.3 0,10 -3.5,15.1 a 1.372953,1.372953 0 1 0 2.3,1.5 c 3,-4.5 3.6,-8.2 3.8,-12.6 z"
         inkscape:connector-curvature="0"
         style="clip-rule:evenodd;fill:#8ad0bf;fill-rule:evenodd" />
      <circle
         id="ellipse527"
         cy="35.700001"
         cx="8.3000002"
         r="1.8"
         style="fill:#ffffff;fill-opacity:0.5" />
      <circle
         id="ellipse529"
         cy="41.299999"
         cx="90.099998"
         r="1.8"
         style="fill:#ffffff;fill-opacity:0.5" />
      <path
         id="path531"
         d="m 68,19.2 c 0.4,-0.5 1.3,-0.6 1.8,-0.1 1,1 2.6,1.4 4.5,1.4 1.7,0 3.5,-0.2 5.1,-0.4 L 80,20 a 1.3152946,1.3152946 0 1 1 0.4,2.6 h -0.6 c -1.6,0.3 -3.6,0.6 -5.5,0.6 -2.2,0 -4.5,-0.5 -6.3,-2.1 -0.5,-0.5 -0.6,-1.4 0,-2 z M 16.3,29 c 0.6,-0.4 1.4,-0.2 1.8,0.4 0.8,1.2 2,1.8 3.4,2 1.4,0.1 3,-0.2 4.5,-1 a 1.3416408,1.3416408 0 1 1 1.2,2.4 11,11 0 0 1 -6,1.2 7,7 0 0 1 -5.3,-3.2 C 15.5,30.2 15.6,29.4 16.3,29 Z"
         inkscape:connector-curvature="0"
         style="clip-rule:evenodd;fill:#9ccf83;fill-rule:evenodd" />
      <path
         id="path533"
         d="m 96.5,36.1 c 0.7,0 1.4,0.5 1.4,1.2 0,0.8 0.4,1.2 0.8,1.5 0.5,0.3 1.3,0.6 2.3,0.7 1.8,0.1 3.8,-0.2 5.3,-0.4 l 0.6,-0.1 a 1.3152946,1.3152946 0 0 1 0.4,2.6 l -0.5,0.1 c -1.5,0.2 -4,0.6 -6,0.4 a 7.4,7.4 0 0 1 -3.6,-1.1 4.4,4.4 0 0 1 -2,-3.5 c 0,-0.7 0.6,-1.3 1.3,-1.4 z"
         inkscape:connector-curvature="0"
         style="clip-rule:evenodd;fill:#8dc771;fill-rule:evenodd" />
    </g>
  </g>
  <g
     inkscape:groupmode="layer"
     id="layer7"
     inkscape:label="big"
     style="display:inline"
     sodipodi:insensitive="true">
    <g
       style="fill:none"
       id="g858"
       transform="translate(171.7,2.6445706)">
      <g
         id="g809"
         transform="translate(-171.6,-3.7)"
         clip-path="url(#clip0-35)">
        <path
           id="path739"
           d="m 174.4,46.7 a 34.4,34.4 0 1 0 60.8,-31 z"
           inkscape:connector-curvature="0"
           style="clip-rule:evenodd;fill:#93dccf;fill-rule:evenodd" />
        <path
           id="path741"
           d="m 217.3,54.2 c 8.4,-4.3 14.9,-10.6 18.5,-17.4 3.7,-6.7 4.5,-14.1 1.3,-20.3 -3.2,-6.3 -9.6,-10 -17.2,-11 -7.6,-1 -16.5,0.6 -25,4.9 a 43.2,43.2 0 0 0 -18.6,17.3 c -3.6,6.8 -4.4,14.1 -1.3,20.4 3.2,6.2 9.7,9.9 17.3,11 7.6,1 16.5,-0.6 25,-5 z"
           inkscape:connector-curvature="0"
           style="fill:#f8f7f7;stroke:#93dccf;stroke-width:3" />
        <ellipse
           id="ellipse743"
           transform="rotate(-27,205.8,32.2)"
           ry="19.700001"
           rx="29.6"
           cy="32.200001"
           cx="205.89999"
           style="fill:#ffa0a2" />
        <path
           id="path745"
           d="m 194,47.5 -0.2,1 z"
           inkscape:connector-curvature="0"
           style="fill:#ffffff" />
        <path
           id="path747"
           d="m 194.4,46.2 c 0.7,0.2 1.2,1 1,1.7 l -0.3,1 a 1.4,1.4 0 1 1 -2.7,-0.7 l 0.3,-1 c 0.2,-0.8 1,-1.2 1.7,-1 z"
           inkscape:connector-curvature="0"
           style="clip-rule:evenodd;fill:#8f8f8f;fill-rule:evenodd" />
        <path
           id="path749"
           d="m 200.6,45.6 0.2,1.1 z"
           inkscape:connector-curvature="0"
           style="fill:#ffffff" />
        <path
           id="path751"
           d="m 200.5,44.2 c 0.7,-0.1 1.4,0.4 1.5,1.2 l 0.2,1.2 a 1.4080128,1.4080128 0 0 1 -2.8,0.3 l -0.2,-1.2 c 0,-0.7 0.5,-1.4 1.3,-1.5 z"
           inkscape:connector-curvature="0"
           style="clip-rule:evenodd;fill:#8f8f8f;fill-rule:evenodd" />
        <path
           id="path753"
           d="m 207.6,42.6 0.6,1 z"
           inkscape:connector-curvature="0"
           style="fill:#ffffff" />
        <path
           id="path755"
           d="m 206.9,41.3 c 0.6,-0.3 1.5,-0.1 1.9,0.5 l 0.6,1.1 a 1.4150972,1.4150972 0 0 1 -2.4,1.5 l -0.6,-1.1 c -0.4,-0.7 -0.2,-1.6 0.5,-2 z"
           inkscape:connector-curvature="0"
           style="clip-rule:evenodd;fill:#8f8f8f;fill-rule:evenodd" />
        <path
           id="path757"
           d="m 190.5,44 -0.6,1 z"
           inkscape:connector-curvature="0"
           style="fill:#ffffff" />
        <path
           id="path759"
           d="m 191.3,42.9 c 0.6,0.4 0.8,1.3 0.4,2 l -0.7,1 a 1.4008926,1.4008926 0 0 1 -2.3,-1.6 l 0.7,-1 c 0.4,-0.7 1.3,-0.8 1.9,-0.4 z"
           inkscape:connector-curvature="0"
           style="clip-rule:evenodd;fill:#8f8f8f;fill-rule:evenodd" />
        <path
           id="path761"
           d="m 202.6,39.6 0.2,1 z"
           inkscape:connector-curvature="0"
           style="fill:#ffffff" />
        <path
           id="path763"
           d="m 202.2,38.3 c 0.7,-0.2 1.5,0.2 1.7,1 l 0.3,1 a 1.4,1.4 0 0 1 -2.7,0.7 l -0.3,-1 c -0.2,-0.7 0.2,-1.5 1,-1.7 z"
           inkscape:connector-curvature="0"
           style="clip-rule:evenodd;fill:#8f8f8f;fill-rule:evenodd" />
        <path
           id="path765"
           d="m 211,34.3 0.7,0.7 z"
           inkscape:connector-curvature="0"
           style="fill:#ffffff" />
        <path
           id="path767"
           d="m 210,33.3 c 0.6,-0.5 1.5,-0.5 2,0 l 0.7,0.7 a 1.4142136,1.4142136 0 0 1 -2,2 L 210,35.3 c -0.5,-0.5 -0.5,-1.4 0,-2 z"
           inkscape:connector-curvature="0"
           style="clip-rule:evenodd;fill:#8f8f8f;fill-rule:evenodd" />
        <path
           id="path769"
           d="m 188.5,32.2 -1.1,-0.5 z"
           inkscape:connector-curvature="0"
           style="fill:#ffffff" />
        <path
           id="path771"
           d="m 186,31.2 c 0.3,-0.7 1.2,-1 1.9,-0.8 l 1,0.5 a 1.4,1.4 0 1 1 -1,2.6 l -1,-0.5 c -0.8,-0.2 -1.1,-1 -0.8,-1.8 z"
           inkscape:connector-curvature="0"
           style="clip-rule:evenodd;fill:#8f8f8f;fill-rule:evenodd" />
        <path
           id="path773"
           d="m 192.7,26.5 -1,-0.9 z"
           inkscape:connector-curvature="0"
           style="fill:#ffffff" />
        <path
           id="path775"
           d="m 190.6,24.7 c 0.5,-0.6 1.3,-0.6 2,-0.1 l 1,0.9 a 1.4,1.4 0 1 1 -1.8,2.1 l -1,-0.9 c -0.7,-0.5 -0.7,-1.4 -0.2,-2 z"
           inkscape:connector-curvature="0"
           style="clip-rule:evenodd;fill:#8f8f8f;fill-rule:evenodd" />
        <path
           id="path777"
           d="m 199,21.4 -0.9,-1 z"
           inkscape:connector-curvature="0"
           style="fill:#ffffff" />
        <path
           id="path779"
           d="m 197.2,19.3 c 0.6,-0.5 1.5,-0.4 2,0.2 l 0.9,1 a 1.421267,1.421267 0 1 1 -2.2,1.8 l -0.9,-1 c -0.5,-0.6 -0.4,-1.5 0.2,-2 z"
           inkscape:connector-curvature="0"
           style="clip-rule:evenodd;fill:#8f8f8f;fill-rule:evenodd" />
        <path
           id="path781"
           d="M 207.4,17.2 V 15.5 Z"
           inkscape:connector-curvature="0"
           style="fill:#ffffff" />
        <path
           id="path783"
           d="m 207.3,14.1 c 0.8,0 1.5,0.7 1.5,1.4 v 1.7 a 1.4,1.4 0 1 1 -2.8,0 v -1.6 c 0,-0.8 0.6,-1.4 1.3,-1.5 z"
           inkscape:connector-curvature="0"
           style="clip-rule:evenodd;fill:#8f8f8f;fill-rule:evenodd" />
        <path
           id="path785"
           d="m 215,16 0.3,-1.7 z"
           inkscape:connector-curvature="0"
           style="fill:#ffffff" />
        <path
           id="path787"
           d="m 215.6,13 c 0.8,0.2 1.3,1 1,1.7 l -0.3,1.7 a 1.4,1.4 0 0 1 -2.7,-0.6 L 214,14 c 0.1,-0.7 0.9,-1.2 1.6,-1 z"
           inkscape:connector-curvature="0"
           style="clip-rule:evenodd;fill:#8f8f8f;fill-rule:evenodd" />
        <path
           id="path789"
           d="M 205.5,23.3 205,21.9 Z"
           inkscape:connector-curvature="0"
           style="fill:#ffffff" />
        <path
           id="path791"
           d="m 204.4,20.6 c 0.7,-0.3 1.6,0 1.8,0.8 l 0.6,1.3 a 1.4115594,1.4115594 0 0 1 -2.6,1.1 l -0.5,-1.3 c -0.3,-0.7 0,-1.6 0.7,-1.9 z"
           inkscape:connector-curvature="0"
           style="clip-rule:evenodd;fill:#8f8f8f;fill-rule:evenodd" />
        <path
           id="path793"
           d="m 198.7,27.7 -0.8,-1 z"
           inkscape:connector-curvature="0"
           style="fill:#ffffff" />
        <path
           id="path795"
           d="m 197,25.7 c 0.6,-0.5 1.5,-0.5 2,0.1 l 0.8,1 a 1.421267,1.421267 0 0 1 -2.2,1.8 l -0.7,-1 c -0.5,-0.5 -0.5,-1.4 0.1,-2 z"
           inkscape:connector-curvature="0"
           style="clip-rule:evenodd;fill:#8f8f8f;fill-rule:evenodd" />
        <path
           id="path797"
           d="m 219.6,19.4 0.7,-1.6 z"
           inkscape:connector-curvature="0"
           style="fill:#ffffff" />
        <path
           id="path799"
           d="m 220.8,16.5 c 0.7,0.3 1,1.1 0.8,1.8 l -0.7,1.7 a 1.4115594,1.4115594 0 0 1 -2.6,-1.1 l 0.7,-1.6 c 0.3,-0.8 1.1,-1.1 1.8,-0.8 z"
           inkscape:connector-curvature="0"
           style="clip-rule:evenodd;fill:#8f8f8f;fill-rule:evenodd" />
        <path
           id="path801"
           d="m 185,56.7 a 1,1 0 0 1 1.4,0 c 2.4,2.8 5.4,5.3 9,7.4 a 1,1 0 0 1 -1,1.7 43.6,43.6 0 0 1 -9.5,-7.7 1,1 0 0 1 0,-1.4 z"
           inkscape:connector-curvature="0"
           style="clip-rule:evenodd;fill:#b9efdc;fill-rule:evenodd" />
        <circle
           id="circle803"
           r="34.400002"
           cy="48"
           cx="227.5"
           style="fill:#93dccf" />
        <path
           id="path805"
           d="m 215.3,23.7 c 0.4,0.4 0.6,1 0.2,1.4 -9.8,13.8 -7.8,33.2 4,52.4 a 1,1 0 1 1 -1.6,1 C 205.9,59 203.4,38.7 213.9,24 a 1,1 0 0 1 1.4,-0.3 z m 7.9,1.9 c 0.5,0 1,0.5 1,1 -1,19 1.6,35.5 6.2,51.1 a 1,1 0 0 1 -1.9,0.6 150.3,150.3 0 0 1 -6.4,-51.8 c 0,-0.5 0.5,-1 1,-1 z m 7.7,-1.1 a 1,1 0 0 1 1.4,0.2 62,62 0 0 1 9.3,24.7 78,78 0 0 1 1.2,25 1.0111874,1.0111874 0 1 1 -2,-0.3 c 1,-5.6 0.6,-15 -1.2,-24.3 a 60,60 0 0 0 -9,-23.9 1,1 0 0 1 0.3,-1.4 z m 7,-5.1 a 1,1 0 0 1 1.3,-0.5 c 8.4,4.3 13.8,14.7 15.8,25.3 1,5.4 1.3,10.8 0.5,15.7 -0.7,4.9 -2.3,9.3 -5,12.3 a 1.0307764,1.0307764 0 0 1 -1.6,-1.3 c 2.4,-2.7 4,-6.6 4.7,-11.3 0.6,-4.6 0.5,-9.8 -0.5,-15 -2,-10.4 -7.2,-20 -14.8,-23.9 a 1,1 0 0 1 -0.4,-1.3 z"
           inkscape:connector-curvature="0"
           style="clip-rule:evenodd;fill:#b9efdc;fill-rule:evenodd" />
        <path
           id="path807"
           d="m 209,24.3 c 0.4,0.4 0.4,1 0,1.4 -5,4.2 -8.4,12.2 -8.4,21.3 a 39,39 0 0 0 11.6,27.8 1,1 0 1 1 -1.4,1.4 A 41,41 0 0 1 198.6,47 c 0,-9.5 3.6,-18.1 9,-22.8 a 1,1 0 0 1 1.5,0 z"
           inkscape:connector-curvature="0"
           style="clip-rule:evenodd;fill:#b9efdc;fill-rule:evenodd" />
      </g>
    </g>
  </g>
</svg>
